<svg width="92" height="92" viewBox="0 0 92 92" fill="none" xmlns="http://www.w3.org/2000/svg">
                                    <path d="M64.146 25.1042C64.146 27.7886 64.146 30.4776 64.146 33.3341C66.0041 33.3341 67.7272 33.3341 69.6879 33.3341C69.6879 31.6593 69.6879 29.9333 69.6879 28.0444C70.8056 27.984 71.6951 27.9374 72.5892 27.8863C72.5892 28.7795 72.5892 29.6681 72.5892 30.566C73.637 30.566 74.4334 30.566 75.1971 30.566C75.1971 29.6169 75.1971 28.8214 75.1971 27.9514C74.2005 27.9514 73.3623 27.9514 72.524 27.9514C72.524 26.1789 72.524 24.411 72.524 22.4942C73.502 22.4942 74.303 22.4942 75.2623 22.4942C75.3182 23.2572 75.3695 24.0062 75.4393 24.9692C76.2124 25.0576 77.0181 25.146 77.9821 25.253C78.0752 26.03 78.173 26.8395 78.2894 27.7839C79.1044 27.7839 79.9101 27.7839 80.8834 27.7839C80.8834 26.0579 80.8834 24.3784 80.8834 22.4616C81.8334 22.4151 82.6345 22.3779 83.5752 22.3314C83.6776 23.2618 83.7708 24.0713 83.8732 25.0018C84.7115 25.0018 85.5172 25.0018 86.4206 25.0018C86.4905 24.169 86.551 23.4154 86.6255 22.4989C88.3533 22.4989 90.0904 22.4989 91.9765 22.4989C91.9765 24.2249 91.9765 25.9555 91.9765 27.8537C89.308 27.8537 86.6954 27.8537 83.8406 27.8537C83.8406 31.6035 83.8406 35.1997 83.8406 39.0519C82.7043 39.0519 81.8102 39.0519 80.916 39.0519L80.9812 39.1217C80.9346 38.2238 80.8834 37.3305 80.8415 36.4745C78.9181 36.4745 77.1857 36.4745 75.2949 36.4745C75.2949 39.2612 75.2949 41.8758 75.2949 44.5556C74.3263 44.644 73.516 44.7184 72.701 44.7929C72.5892 45.7512 72.4914 46.5607 72.3796 47.5098C70.5541 47.5098 68.8682 47.5098 67.1032 47.5098C67.1032 48.4822 67.1032 49.2824 67.1032 50.1198C68.0393 50.2268 68.8496 50.3198 69.7996 50.4268C69.7996 51.3945 69.7996 52.2366 69.7996 53.0833C68.9008 53.0833 68.0067 53.0833 67.1218 53.0833C66.9914 54.1394 66.8936 54.9489 66.7958 55.7724C65.897 55.8282 65.1472 55.8747 64.1739 55.9352C64.1739 57.7729 64.1739 59.5129 64.1739 61.2901C63.1354 61.3924 62.3251 61.4761 61.552 61.5506C61.552 62.509 61.552 63.3092 61.552 64.1419C62.4601 64.1978 63.2099 64.2489 64.0668 64.3001C64.0668 67.0683 64.0668 69.734 64.0668 72.4836C63.1494 72.5627 62.339 72.6325 61.5147 72.7022C61.4123 73.6606 61.3238 74.4701 61.2446 75.2052C59.3352 75.2052 57.6028 75.2052 55.917 75.2052C55.917 74.2794 55.917 73.5304 55.917 72.679C56.8251 72.6092 57.6401 72.5487 58.4364 72.4882C58.4364 71.5159 58.4364 70.7203 58.4364 69.762C56.5131 69.762 54.7434 69.762 52.9737 69.762L53.0389 69.8271C53.0156 68.878 52.9923 67.9289 52.9691 66.9752C53.8632 66.9752 54.7527 66.9752 55.6515 66.9752C55.6515 65.9331 55.6515 65.1375 55.6515 64.3699C54.7015 64.3699 53.9051 64.3699 53.0343 64.3699C53.0343 65.3655 53.0343 66.2029 53.0343 67.0403C51.1528 67.0403 49.2714 67.0357 47.3853 67.0357C47.4318 66.1378 47.4737 65.2445 47.5203 64.342C48.4983 64.2303 49.3086 64.1326 50.2447 64.0256C50.2447 63.0626 50.2447 62.2205 50.2447 61.3831L50.1795 61.4482C52.019 61.4482 53.8539 61.4482 55.7633 61.4482C55.7633 60.2851 55.7633 59.4384 55.7633 58.5917C57.5935 58.5917 59.4237 58.5917 61.3564 58.5917C61.3564 56.5447 61.3564 54.7768 61.3564 53.0042C62.2506 53.0042 63.14 53.0042 64.2671 53.0042C64.2671 50.0965 64.2671 47.4354 64.2671 44.5509C66.237 44.5509 67.9694 44.5509 69.6739 44.5509C69.7577 43.56 69.8183 42.811 69.8881 41.9735C70.8009 41.8991 71.6112 41.8386 72.4122 41.7735C72.4122 40.8058 72.4122 40.0009 72.4122 39.2194C71.4482 39.0984 70.6379 38.996 69.8648 38.8983C69.7903 37.9865 69.7298 37.2375 69.6599 36.428C68.7471 36.428 67.9415 36.428 67.1125 36.428C67.0054 37.3631 66.9123 38.1726 66.8098 39.0472C65.8365 39.0472 64.9982 39.0472 64.1553 39.0472L64.2205 39.1124C64.1693 38.2145 64.118 37.3212 64.0715 36.4745C62.1434 36.4745 60.411 36.4745 58.5156 36.4745C58.5156 38.3308 58.5156 40.0103 58.5156 41.7363C56.6062 41.7363 54.8645 41.7363 53.1786 41.7363C53.1786 40.7825 53.1786 39.9777 53.1786 39.1821C54.1007 39.103 54.8552 39.0426 55.6701 38.9728C55.6701 38.0609 55.6701 37.2561 55.6701 36.4326C54.7294 36.3209 53.9191 36.2232 53.1088 36.1302C53.1088 35.237 53.1088 34.4879 53.1088 33.497C54.9436 33.497 56.6854 33.497 58.4457 33.497C58.4457 32.4502 58.4457 31.6547 58.4457 30.6823C55.591 30.6823 52.8899 30.6823 50.1841 30.6823L50.2493 30.7474C50.2493 29.7937 50.2493 28.8446 50.2493 27.8909L50.1841 27.956C52.0144 27.956 53.8446 27.956 55.8378 27.956C55.8378 25.8485 55.8378 24.0806 55.8378 22.3081L55.7726 22.3732C56.7273 22.3732 57.6773 22.3732 58.632 22.3732L58.5668 22.3081C58.5668 24.1272 58.5668 25.9509 58.5668 27.7793C59.6566 27.7793 60.4576 27.7793 61.2633 27.7793C61.375 26.8348 61.4682 26.0253 61.5706 25.1646C62.5439 25.1646 63.3822 25.1646 64.2205 25.1646L64.146 25.1042ZM80.8461 33.4225C80.8461 32.4269 80.8461 31.6826 80.8461 30.8405C79.9427 30.8405 79.137 30.8405 78.2987 30.8405C78.2987 31.7663 78.2987 32.5712 78.2987 33.4225C79.1929 33.4225 79.938 33.4225 80.8461 33.4225Z" fill="#686062"></path>
                                    <path d="M83.7064 89.3064C83.7064 90.1485 83.7064 90.9906 83.7064 91.9815C81.9227 91.9815 80.1903 91.9815 78.2856 91.9815C78.2111 91.2046 78.1319 90.3997 78.0201 89.3018C76.1806 89.3018 74.355 89.3018 72.5341 89.3018L72.5993 89.3715C72.5528 88.4736 72.5062 87.5711 72.4596 86.6871C71.4677 86.5662 70.6573 86.4638 69.8563 86.3661C69.7865 85.4636 69.7259 84.7099 69.6607 83.8446C68.7619 83.7794 67.9469 83.7236 66.9224 83.6492C66.9224 81.7557 66.9224 80.0157 66.9224 78.2059C65.842 78.2059 64.9944 78.2059 64.1468 78.2059C64.1934 77.3127 64.2399 76.4194 64.2865 75.4983C65.2505 75.4052 66.0515 75.3308 67.0435 75.2377C67.0435 72.4277 67.0435 69.7759 67.0435 67.1473C68.0634 67.0264 68.8737 66.9333 69.7352 66.831C69.7352 65.8633 69.7352 65.0259 69.7352 64.1884C70.6853 64.1838 71.64 64.1838 72.59 64.1791C72.59 65.0631 72.59 65.947 72.59 66.8915C74.5274 66.8915 76.2411 66.8915 78.0201 66.8915C78.0201 65.8865 78.0201 64.9979 78.0248 64.1093C79.0121 64.1373 79.9947 64.1605 80.9774 64.1838C80.9774 65.0584 80.9774 65.9284 80.9774 66.9798C82.0299 66.9798 82.9007 66.9798 83.7763 66.9798C83.7763 68.8082 83.7763 70.6319 83.7763 72.4417C82.6632 72.572 81.8529 72.6697 81.0379 72.7627C81.0379 73.6513 81.0379 74.4003 81.0379 75.261C82.8588 75.261 84.5912 75.261 86.4401 75.261C86.5099 74.3631 86.5705 73.5582 86.6403 72.6929C87.5857 72.6138 88.3914 72.5487 89.1831 72.4836C89.1831 69.6317 89.1831 66.9705 89.1831 64.2536C88.1911 64.2536 87.3482 64.2536 86.5053 64.2536C86.5379 63.3278 86.5658 62.4019 86.5984 61.4761C87.4833 61.4203 88.3634 61.3598 89.3507 61.2947C89.3042 60.2898 89.2623 59.4942 89.2297 58.7452C88.233 58.7452 87.4926 58.7452 86.6683 58.7452C86.6683 59.7455 86.6683 60.6434 86.6636 61.5366C85.6763 61.5087 84.689 61.4854 83.7064 61.4575C83.7064 60.5643 83.7064 59.671 83.7064 58.7917C82.6586 58.7917 81.8576 58.7917 80.982 58.7917C80.982 59.7827 80.982 60.6201 80.982 61.4575C80.0879 61.4575 79.1984 61.4575 78.2344 61.4575C78.1785 62.5089 78.1366 63.3371 78.0946 64.1698C76.2365 64.1931 74.383 64.221 72.5248 64.2443C72.5714 63.351 72.6226 62.4531 72.6692 61.5599C73.6472 61.4482 74.4575 61.3505 75.3237 61.2528C75.3237 60.2805 75.3237 59.4431 75.3237 58.6056C76.2179 58.6056 77.1074 58.6056 78.0062 58.6056C78.0062 56.6144 78.0062 54.8838 78.0062 53.088C77.0142 53.088 76.1713 53.088 75.3237 53.088C75.3703 52.1947 75.4168 51.2968 75.4634 50.3896C76.4367 50.2826 77.2378 50.1989 78.2344 50.0919C78.2344 46.356 78.2344 42.7691 78.2344 39.1309C79.2915 39.1309 80.1344 39.1309 80.9774 39.1309L80.9122 39.0612C80.9122 39.9032 80.9122 40.7453 80.9122 41.7083C81.8482 41.82 82.6586 41.913 83.5993 42.02C83.5993 42.8389 83.5993 43.6437 83.5993 44.5835C82.8076 44.6393 82.0578 44.6951 81.0472 44.7649C81.01 45.5372 80.9727 46.3374 80.9261 47.2818C81.8343 47.3888 82.6446 47.4865 83.6319 47.6075C83.6785 48.4961 83.7297 49.3893 83.7763 50.2872C82.8821 50.2872 81.9879 50.2872 81.1171 50.2872C81.1171 52.2878 81.1171 54.0138 81.1171 55.7351C82.9706 55.7351 84.6518 55.7351 86.4028 55.7351C86.4028 54.8233 86.4028 54.0184 86.4028 53.1903C85.4668 53.0833 84.6518 52.9856 83.7111 52.8786C83.7111 51.9109 83.7111 51.0688 83.7111 50.2268C86.4075 50.2268 89.1039 50.2268 91.9587 50.2268C91.9587 58.6149 91.9587 66.831 91.9587 75.2284C91.2229 75.3168 90.4172 75.4099 89.4346 75.5262C89.388 76.4194 89.3414 77.3173 89.2902 78.2152L89.3601 78.1501C88.4892 78.1501 87.6137 78.1501 86.5006 78.1501C86.5006 79.262 86.5006 80.132 86.5006 81.0066L86.5658 80.9415C85.6111 80.9648 84.6564 80.9834 83.7017 81.0066C83.7017 80.1134 83.7017 79.2201 83.7017 78.3408C82.6492 78.3408 81.8529 78.3408 80.9727 78.3408C80.9727 79.3318 80.9727 80.1739 80.9727 81.0113C80.0832 81.0113 79.1984 81.0113 78.2809 81.0113C78.2809 82.9699 78.2809 84.6913 78.2809 86.4313C79.217 86.5336 80.0227 86.6267 80.8144 86.7104C80.9261 87.6548 81.0239 88.4597 81.131 89.3809C82.0951 89.3809 82.9333 89.3809 83.7716 89.3809L83.7064 89.3064ZM78.0434 69.9294C75.2771 69.9294 72.618 69.9294 69.9215 69.9294C69.9215 72.7162 69.9215 75.3727 69.9215 78.0012C72.7344 78.0012 75.3936 78.0012 78.0434 78.0012C78.0434 75.2238 78.0434 72.6278 78.0434 69.9294Z" fill="#686062"></path>
                                    <path d="M58.5579 2.77745C58.5579 3.61952 58.5579 4.46159 58.5579 5.42928C57.6777 5.52698 56.8627 5.62003 55.8987 5.72703C55.8382 6.55515 55.7776 7.3693 55.7124 8.26255C54.8462 8.33699 54.0918 8.39747 53.0998 8.48121C53.0998 10.1933 53.0998 11.9286 53.0998 13.9105C51.1439 13.9105 49.4068 13.9105 47.4369 13.9105C47.4369 16.8136 47.4369 19.4793 47.4369 22.2289C46.4542 22.2987 45.7044 22.3545 44.7917 22.4196C44.7917 23.2384 44.7917 24.0433 44.7917 25.1645C46.58 25.1645 48.4102 25.1645 50.2451 25.1645L50.1799 25.0947C50.1799 26.0484 50.1799 26.9975 50.1799 27.9513L50.2451 27.8861C49.3463 27.9326 48.4521 27.9745 47.5719 28.021C47.5719 29.0027 47.5719 29.8029 47.5719 30.7427C48.5639 30.7427 49.4021 30.7427 50.2451 30.7427L50.1799 30.6775C50.1799 31.5708 50.1799 32.464 50.1799 33.3573C49.132 33.4782 48.3217 33.5713 47.3763 33.6829C47.3763 34.6413 47.3763 35.4834 47.3763 36.3208L47.4415 36.2557C46.5474 36.2557 45.6532 36.2557 44.7637 36.2557C44.6426 35.2089 44.5495 34.404 44.447 33.5387C43.4737 33.5387 42.6354 33.5387 41.7972 33.5387C41.7972 31.715 41.7972 29.8959 41.7972 28.0676C40.768 28.0676 39.967 28.0676 39.1659 28.0676C39.0542 29.012 38.9564 29.8122 38.8539 30.6775C36.9399 30.6775 35.1749 30.6775 33.4145 30.6775L33.4797 30.7427C33.4797 29.8494 33.4797 28.9562 33.4797 28.0583C34.5322 27.9373 35.3332 27.8489 36.2739 27.7419C36.2739 24.8993 36.2739 22.2056 36.2739 19.5119L36.2087 19.577C37.1075 19.5305 38.0063 19.4793 39.0681 19.4235C39.0681 17.4742 39.0681 15.7016 39.0681 13.9291L39.0029 13.9942C40.8425 13.9942 42.6774 13.9942 44.5868 13.9942C44.5868 12.8311 44.5868 11.9844 44.5868 11.1377C46.417 11.1377 48.2472 11.1377 50.2451 11.1377C50.2451 9.09532 50.2451 7.32278 50.2451 5.55489L50.1799 5.62468C51.0181 5.62468 51.8611 5.62468 52.9136 5.62468C52.9136 3.78235 52.9136 2.05633 52.9136 0.125613C53.9102 0.07909 54.7019 0.041871 55.6379 0C55.7357 0.925815 55.8196 1.73067 55.922 2.68905C56.8348 2.74023 57.7243 2.7914 58.6184 2.83793L58.5579 2.77745ZM41.9415 19.4189C42.8543 19.4189 43.66 19.4189 44.4703 19.4189C44.4703 18.4837 44.4703 17.6835 44.4703 16.9299C43.5156 16.9299 42.71 16.9299 41.9415 16.9299C41.9415 17.851 41.9415 18.6 41.9415 19.4189Z" fill="#686062"></path>
                                    <path d="M5.54138 27.9561C5.54138 26.1836 5.54138 24.4157 5.54138 22.4943C7.38091 22.4943 9.11333 22.4943 11.0181 22.4943C11.0181 24.2203 11.0181 25.8952 11.0181 27.7514C13.8449 27.7514 16.5134 27.7514 19.3262 27.7514C19.3262 26.9745 19.3262 26.1789 19.3262 25.2066C17.6124 25.2066 15.9313 25.2066 14.0079 25.2066C13.9613 24.2482 13.9194 23.448 13.8635 22.3035C16.7602 22.3035 19.5265 22.3035 22.2974 22.3035C22.2974 23.1968 22.2974 24.0854 22.2974 24.9833C23.3406 24.9833 24.1416 24.9833 24.9054 24.9833C24.9054 24.0342 24.9054 23.2387 24.9054 22.3687C23.9088 22.3687 23.0705 22.3687 22.2322 22.3687C22.2322 20.6101 22.2322 18.8562 22.2322 16.8743C23.1683 16.8277 23.96 16.7905 24.8961 16.7487C24.9985 17.6698 25.087 18.4747 25.1941 19.447C26.0976 19.4935 26.9964 19.5401 27.8906 19.5866L27.8254 19.5168C27.8719 20.4147 27.9138 21.3079 27.9604 22.2059C28.9384 22.3175 29.7441 22.4106 30.6615 22.5176C30.6196 23.4573 30.5823 24.2575 30.5497 25.0345C29.5578 25.1136 28.808 25.1787 27.9837 25.2438C27.9837 26.1417 27.9837 26.9419 27.9837 27.8073C28.9058 27.8957 29.7161 27.9701 30.5218 28.0445C30.6336 29.0029 30.7267 29.8124 30.8385 30.7429C31.8025 30.7429 32.6407 30.7429 33.4837 30.7429L33.4185 30.6778C33.4418 31.6315 33.465 32.5806 33.4883 33.5343C32.6128 33.5343 31.7419 33.5343 30.6894 33.5343C30.6894 34.5811 30.6894 35.4557 30.6894 36.3304C28.8033 36.3304 26.9172 36.3257 25.0358 36.3257C25.0358 35.3766 25.0358 34.4275 25.0311 33.4785C25.9253 33.4785 26.8148 33.4785 27.7136 33.4785C27.7136 32.4363 27.7136 31.6361 27.7136 30.8732C26.7635 30.8732 25.9672 30.8732 25.0963 30.8732C25.0963 31.8688 25.0963 32.7062 25.0963 33.5436C24.2022 33.4924 23.308 33.4459 22.3999 33.3947C22.2974 32.427 22.2136 31.6222 22.1112 30.6405C17.4495 30.6405 12.9414 30.6405 8.44272 30.6405C8.32629 29.6263 8.22849 28.8168 8.12138 27.8864C7.15737 27.8864 6.3191 27.8864 5.48083 27.8864L5.54138 27.9561Z" fill="#686062"></path>
                                    <path d="M19.3081 19.4518C12.8208 19.4518 6.49188 19.4518 0.0418701 19.4518C0.0418701 13.0316 0.0418701 6.70906 0.0418701 0.200439C6.37546 0.200439 12.7603 0.200439 19.3081 0.200439C19.3081 6.50436 19.3081 12.8827 19.3081 19.4518ZM16.5697 2.95928C11.8941 2.95928 7.37672 2.95928 2.88733 2.95928C2.88733 7.63022 2.88733 12.1476 2.88733 16.6511C7.52575 16.6511 11.9919 16.6511 16.5697 16.6511C16.5697 12.0732 16.5697 7.61627 16.5697 2.95928Z" fill="#686062"></path>
                                    <path d="M72.6686 19.3865C72.6686 12.9011 72.6686 6.57862 72.6686 0.135132C79.1 0.135132 85.4243 0.135132 91.9395 0.135132C91.9395 6.46696 91.9395 12.8453 91.9395 19.3865C85.6199 19.3865 79.2397 19.3865 72.6686 19.3865ZM89.285 2.94514C84.5674 2.94514 80.0454 2.94514 75.5188 2.94514C75.5188 7.60214 75.5188 12.1196 75.5188 16.5765C80.2037 16.5765 84.7257 16.5765 89.285 16.5765C89.285 11.9893 89.285 7.58353 89.285 2.94514Z" fill="#686062"></path>
                                    <path d="M0.0787964 72.6927C6.57072 72.6927 12.8997 72.6927 19.3497 72.6927C19.3497 79.1176 19.3497 85.4355 19.3497 91.9441C13.0114 91.9441 6.62661 91.9441 0.0787964 91.9441C0.0787964 85.6309 0.0787964 79.2525 0.0787964 72.6927ZM16.5415 89.2923C16.5415 84.5795 16.5415 80.0621 16.5415 75.54C11.8798 75.54 7.35776 75.54 2.89631 75.54C2.89631 80.2202 2.89631 84.7377 2.89631 89.2923C7.4835 89.2923 11.8937 89.2923 16.5415 89.2923Z" fill="#686062"></path>
                                    <path d="M39.068 55.8049C38.2251 55.8049 37.3775 55.8049 36.3064 55.8049C36.3064 54.0091 36.3064 52.2738 36.3064 50.3989C34.3504 50.3989 32.6273 50.3989 30.6574 50.3989C30.6574 52.19 30.6574 53.9254 30.6574 55.7444C29.6794 55.8049 28.9249 55.8561 28.0355 55.9119C27.9377 56.74 27.8399 57.5495 27.7141 58.5963C25.8979 58.5963 24.0676 58.5963 22.2374 58.5963L22.3026 58.6661C22.3026 57.7728 22.3026 56.8749 22.3026 55.9863C23.3598 55.8607 24.1608 55.7677 25.176 55.6514C25.176 51.9249 25.176 48.3379 25.176 44.7928C26.1587 44.7928 26.9084 44.7928 27.7653 44.7928C27.8352 45.7 27.8957 46.5142 27.9563 47.3097C28.9249 47.3097 29.7213 47.3097 30.6155 47.3097C30.6155 45.3883 30.6155 43.6204 30.6155 41.8525C31.5702 41.8525 32.5248 41.8525 33.4795 41.8525C33.4795 42.7225 33.4795 43.5972 33.4795 44.6439C34.5274 44.6439 35.3982 44.6439 36.2738 44.6439C36.2738 45.5325 36.2738 46.4258 36.2738 47.319C39.1937 47.319 41.8622 47.319 44.5913 47.319C44.5913 46.3281 44.5913 45.4814 44.5913 44.6393C45.4854 44.6393 46.3796 44.6393 47.2737 44.6393C47.3995 43.5879 47.4926 42.783 47.5904 41.9782C48.4846 41.9782 49.2297 41.9782 50.0959 41.9782C50.0959 43.8019 50.0959 45.5325 50.0959 47.3749C49.1924 47.4447 48.3821 47.5051 47.5299 47.5749C47.446 48.524 47.3762 49.3288 47.2877 50.3477C44.4655 50.3477 41.8063 50.3477 39.0075 50.3477C39.0075 52.3482 39.0075 54.1115 39.0075 55.8747L39.068 55.8049Z" fill="#686062"></path>
                                    <path d="M25.1017 8.41625C25.1017 7.57883 25.1017 6.74141 25.1017 5.77838C24.1656 5.67137 23.3553 5.57368 22.4099 5.46667C22.4099 3.74065 22.4099 2.01464 22.4099 0.149048C26.0191 0.149048 29.5957 0.149048 33.4145 0.149048C33.4145 1.06091 33.4145 1.9495 33.4145 2.83345L33.4844 2.76831C32.5856 2.81484 31.6914 2.85671 30.8112 2.90323C30.8112 3.88488 30.8112 4.68508 30.8112 5.62485C31.8032 5.62485 32.6415 5.62485 33.4844 5.62485L33.4192 5.55972C33.4192 6.42971 33.4192 7.30435 33.4192 8.41625C34.5322 8.41625 35.4031 8.41625 36.2786 8.41625L36.2134 8.35112C36.26 9.24902 36.3019 10.1423 36.3485 11.0402C37.3264 11.1518 38.1368 11.2495 39.0076 11.3472C39.0076 12.3196 39.0076 13.157 39.0076 13.9944L39.0728 13.9293C38.174 13.9758 37.2752 14.027 36.2134 14.0828C36.2134 16.0321 36.2134 17.8047 36.2134 19.5772L36.2786 19.5121C35.3891 19.5121 34.4996 19.5121 33.3959 19.5121C33.3959 17.5488 33.3959 15.8181 33.3959 14.12C32.376 14.12 31.5843 14.12 30.5737 14.12C30.5737 16.0042 30.5737 17.7349 30.5737 19.5121C29.5166 19.5121 28.6736 19.5121 27.8307 19.5121L27.8959 19.5819C27.8959 17.8186 27.8959 16.0554 27.8959 14.1386C26.9552 14.0316 26.1542 13.9432 25.1063 13.8223C25.1063 12.9244 25.1063 12.0311 25.1063 11.1379L25.0365 11.203C26.8667 11.203 28.6923 11.203 30.4946 11.203C30.4946 10.0957 30.4946 9.3002 30.4946 8.34647C28.5712 8.34647 26.8015 8.34647 25.0365 8.34647L25.1017 8.41625Z" fill="#686062"></path>
                                    <path d="M36.3712 81.0717C36.3386 78.2338 36.306 75.3959 36.278 72.5533L36.2082 72.6184C37.1023 72.6184 37.9965 72.6184 38.8907 72.6184C39.0117 73.6652 39.1049 74.4747 39.2073 75.3401C40.1807 75.3401 41.0189 75.3401 41.8572 75.3401C41.8572 76.2333 41.8572 77.1312 41.8572 78.0105C42.9097 78.0105 43.7107 78.0105 44.5862 78.0105C44.5862 77.0195 44.5862 76.1775 44.5862 75.3401C45.4571 75.3401 46.3326 75.3401 47.3805 75.3401C47.3805 74.2933 47.3805 73.4233 47.3805 72.5486C48.2746 72.5486 49.1688 72.5486 50.0629 72.5486C50.184 71.5019 50.2771 70.6924 50.3796 69.827C51.3529 69.827 52.1912 69.827 53.0295 69.827L52.9643 69.7619C52.9643 73.507 52.9643 77.2475 52.9643 80.9926L53.0295 80.9229C51.2691 80.9229 49.5041 80.9229 47.5062 80.9229C47.5062 82.7838 47.5062 84.5098 47.5062 86.3847C45.5502 86.3847 43.8271 86.3847 41.9224 86.3847C41.8758 85.5054 41.8293 84.6122 41.7827 83.7236C42.6768 83.7236 43.5663 83.7236 44.4651 83.7236C44.4651 82.6768 44.4651 81.8812 44.4651 81.1183C43.5151 81.1183 42.7187 81.1183 41.8479 81.1183C41.8479 82.1139 41.8479 82.9513 41.8479 83.7887C41.0143 83.7887 40.1807 83.7887 39.2213 83.7887C39.1095 82.8722 39.0164 82.072 38.886 81.0066C38.0431 81.0066 37.1675 81.0066 36.292 81.0019C36.2967 81.0066 36.3712 81.0717 36.3712 81.0717Z" fill="#686062"></path>
                                    <path d="M2.73797 66.9657C1.89504 66.9657 1.05211 66.9657 0.0648193 66.9657C0.0648193 65.1792 0.0648193 63.4486 0.0648193 61.476C1.78793 61.476 3.51569 61.476 5.54151 61.476C5.54151 58.4985 5.54151 55.7582 5.54151 53.0134L5.47165 53.0785C6.42635 53.0785 7.37639 53.0785 8.33108 53.0785L8.26588 53.0134C8.31245 53.9066 8.35902 54.7999 8.41491 55.9025C12.1825 55.9025 15.7824 55.9025 19.4428 55.9025C19.4428 56.9679 19.4428 57.8146 19.4428 58.6613L19.508 58.5962C18.6325 58.5962 17.7616 58.5962 16.7138 58.5962C16.7138 59.7127 16.7138 60.5827 16.7138 61.4574C15.8196 61.4574 14.9255 61.4574 13.8543 61.4574C13.8543 63.4904 13.8543 65.263 13.8543 67.0355L13.9195 66.9657C12.9695 66.9657 12.0195 66.9611 11.0648 66.9611L11.13 67.0262C11.13 64.3232 11.13 61.6202 11.13 58.7776C10.1427 58.7776 9.34166 58.7776 8.373 58.7776C8.373 60.485 8.373 62.1692 8.373 64.1045C6.48223 64.1045 4.74515 64.1045 2.83576 64.1045C2.77057 65.2397 2.71934 66.133 2.66811 67.0309L2.73797 66.9657Z" fill="#686062"></path>
                                    <path d="M30.6899 61.448C30.6899 60.6012 30.6899 59.7545 30.6899 58.6659C33.526 58.6659 36.297 58.6659 39.0679 58.6659L39.0027 58.5961C39.0493 59.494 39.0912 60.3872 39.1378 61.2665C40.1204 61.2665 40.9214 61.2665 41.8622 61.2665C41.8622 60.2756 41.8622 59.4382 41.8622 58.5961L41.797 58.6612C42.6958 58.6147 43.5899 58.5728 44.4887 58.5263C44.6005 57.5493 44.6983 56.7398 44.8054 55.8047C45.7694 55.8047 46.6077 55.8047 47.4506 55.8047C47.4506 56.6979 47.4506 57.5912 47.4506 58.4891C48.4984 58.61 49.3088 58.7031 50.1796 58.8054C50.1796 59.7778 50.1796 60.6152 50.1796 61.4573L50.2448 61.3921C48.4146 61.3921 46.5844 61.3921 44.661 61.3921C44.661 63.4997 44.661 65.2675 44.661 67.0401C41.8435 67.0168 39.026 66.9982 36.2085 66.975L36.2784 67.0401C36.2784 65.2722 36.2784 63.4997 36.2784 61.3875C34.2851 61.3875 32.4549 61.3875 30.6247 61.3875L30.6899 61.448Z" fill="#686062"></path>
                                    <path d="M55.8381 89.3623C55.8381 87.4828 55.8381 85.6032 55.8334 83.7237L55.7635 83.7888C57.6497 83.7656 59.5311 83.7423 61.4172 83.7191C61.4172 84.6123 61.4172 85.5055 61.4172 86.4034C62.465 86.5244 63.2707 86.6175 64.109 86.7105C64.1649 87.5991 64.2114 88.3481 64.272 89.367C67.0942 89.367 69.8465 89.367 72.5941 89.367L72.5289 89.2972C72.5289 90.1393 72.5289 90.986 72.5289 91.977C68.8825 91.977 65.2965 91.977 61.5336 91.977C61.4498 91.2093 61.3613 90.4045 61.2356 89.2926C59.4147 89.2926 57.5891 89.2926 55.7635 89.2926L55.8381 89.3623Z" fill="#686062"></path>
                                    <path d="M33.4147 80.997C34.3974 81.0203 35.38 81.0435 36.3673 81.0714C36.372 81.0761 36.2928 81.0063 36.2974 81.011C36.3021 84.6212 36.3021 88.2314 36.3021 91.9812C35.2962 91.9812 34.4998 91.9812 33.5451 91.9812C33.4846 91.1577 33.4287 90.3482 33.3635 89.4456C32.4973 89.4456 31.7475 89.4456 30.8394 89.4456C30.7462 90.204 30.6438 91.0135 30.5227 91.9719C29.7403 91.9719 28.9393 91.9719 27.9008 91.9719C27.9008 90.1621 27.9008 88.3384 27.9008 86.5147L27.8309 86.5798C28.7018 86.5798 29.5773 86.5798 30.6904 86.5798C30.6904 85.4679 30.6904 84.5979 30.6904 83.7233L30.6252 83.7884C31.496 83.7884 32.3716 83.7884 33.4846 83.7884C33.4846 82.6765 33.4846 81.8065 33.4846 80.9319C33.4799 80.9272 33.4147 80.997 33.4147 80.997Z" fill="#686062"></path>
                                    <path d="M5.53701 39.0566C4.68943 39.0566 3.8465 39.0566 2.85455 39.0566C2.85455 35.3999 2.85455 31.8083 2.85455 27.9561C3.75336 27.9561 4.64752 27.9561 5.54167 27.9561L5.47182 27.891C5.47182 29.7147 5.47182 31.5338 5.47182 33.5715C8.46164 33.5715 11.1301 33.5715 13.9244 33.5715C13.9244 34.6415 13.9244 35.4836 13.9244 36.3303C11.1441 36.3303 8.35919 36.3303 5.47182 36.3303C5.47182 37.4562 5.47182 38.289 5.47182 39.1217L5.53701 39.0566Z" fill="#686062"></path>
                                    <path d="M36.2082 5.62929C37.0558 5.62929 37.8987 5.62929 38.9791 5.62929C38.9791 3.74974 38.9791 2.00511 38.9791 0.139526C40.013 0.139526 40.814 0.139526 41.7221 0.139526C41.7873 0.96299 41.8432 1.71667 41.9131 2.61922C42.7141 2.71692 43.5244 2.81927 44.5862 2.94954C44.5862 3.82883 44.5862 4.72673 44.5862 5.62463L44.6561 5.5595C43.7806 5.5595 42.9097 5.5595 41.8618 5.5595C41.8618 6.67606 41.8618 7.54605 41.8618 8.42069C39.9757 8.39743 38.0943 8.37417 36.2082 8.3509L36.2734 8.41604C36.2734 7.46231 36.2734 6.51323 36.2734 5.5595L36.2082 5.62929Z" fill="#686062"></path>
                                    <path d="M61.361 11.2167C63.1307 11.2167 64.9004 11.2167 66.8331 11.2167C66.9262 10.249 67.0054 9.44413 67.0938 8.51831C67.9507 8.51831 68.7518 8.51831 69.6645 8.51831C69.6645 10.2722 69.6645 11.9517 69.6645 13.7941C68.8775 13.8918 68.0718 13.9895 67.0845 14.1104C67.038 14.999 66.9914 15.8969 66.9402 16.7948L67.01 16.7297C66.0553 16.7297 65.1053 16.7297 64.1506 16.7297L64.2205 16.7948C64.2205 15.9574 64.2205 15.12 64.2205 14.1523C63.2844 14.0453 62.4741 13.9476 61.4309 13.8266C61.4309 12.9334 61.4309 12.0401 61.4309 11.1469L61.361 11.2167Z" fill="#686062"></path>
                                    <path d="M22.2464 69.836C23.0847 69.836 23.9276 69.836 24.8869 69.836C24.9987 68.887 25.0919 68.0775 25.199 67.1423C26.0233 67.1423 26.8243 67.1423 27.7417 67.1423C27.7417 68.9242 27.7417 70.6549 27.7417 72.4786C26.8895 72.5484 26.1397 72.6088 25.1571 72.6879C25.1571 74.4 25.1571 76.1353 25.1571 78.0195C24.1372 78.0195 23.3408 78.0195 22.3116 78.0195C22.3116 75.2746 22.3116 72.5251 22.3116 69.7756L22.2464 69.836Z" fill="#686062"></path>
                                    <path d="M66.941 16.7902C67.7886 16.7902 68.6315 16.7902 69.6235 16.7902C69.6235 19.5118 69.6235 22.1776 69.6235 25.1039C67.7933 25.1039 65.9724 25.1039 64.1468 25.1039L64.2166 25.1691C64.2166 24.2153 64.2166 23.2663 64.2166 22.3125L64.1514 22.3777C65.0503 22.3312 65.9491 22.28 67.0109 22.2241C67.0109 20.2748 67.0109 18.5023 67.0109 16.7297L66.941 16.7902Z" fill="#686062"></path>
                                    <path d="M58.6235 2.84248C58.6235 1.99575 58.6235 1.15368 58.6235 0.158081C62.2793 0.158081 65.8699 0.158081 69.6188 0.158081C69.6188 0.948979 69.6188 1.73988 69.6188 2.77735C65.9304 2.77735 62.242 2.77735 58.5583 2.77735C58.5583 2.77735 58.6235 2.84248 58.6235 2.84248Z" fill="#686062"></path>
                                    <path d="M36.2789 72.5577C35.4359 72.5577 34.593 72.5577 33.629 72.5577C33.5172 73.4975 33.4241 74.307 33.317 75.2468C32.4927 75.2468 31.6917 75.2468 30.7742 75.2468C30.7742 73.4556 30.7742 71.7249 30.7742 69.8873C31.6311 69.8314 32.3809 69.7849 33.2751 69.7291C33.3729 68.901 33.4707 68.0915 33.5964 67.04C34.4859 67.04 35.3847 67.04 36.2789 67.04L36.209 66.9749C36.209 68.8591 36.209 70.7387 36.209 72.6229L36.2789 72.5577Z" fill="#686062"></path>
                                    <path d="M22.3123 69.7666C19.5879 69.7666 16.8636 69.7666 13.9203 69.7666C13.9203 68.7338 13.9203 67.8498 13.9203 66.9659L13.8551 67.0357C15.6946 67.0357 17.5295 67.0357 19.4389 67.0357C19.4389 65.8726 19.4389 65.0259 19.4389 64.1791C20.3936 64.2024 21.3483 64.221 22.303 64.2443L22.2331 64.1791C22.2378 66.0633 22.2378 67.9475 22.2424 69.8317C22.2471 69.8364 22.3123 69.7666 22.3123 69.7666Z" fill="#686062"></path>
                                    <path d="M58.5623 19.5864C59.4005 19.5864 60.2435 19.5864 61.2075 19.5864C61.3146 18.6466 61.4124 17.8371 61.5335 16.7904C62.4323 16.7904 63.3264 16.7904 64.2206 16.7904L64.1507 16.7252C64.1507 18.6094 64.1507 20.489 64.1507 22.3732L64.2159 22.308C62.3298 22.308 60.4484 22.308 58.5623 22.308L58.6275 22.3732C58.6275 21.4194 58.6275 20.4704 58.6275 19.5166L58.5623 19.5864Z" fill="#686062"></path>
                                    <path d="M5.54172 50.2874C5.54172 49.3383 5.54172 48.3846 5.54172 47.4355L5.47186 47.5006C7.29743 47.5006 9.11833 47.5006 10.9439 47.5006C10.9439 49.4918 10.9439 51.2225 10.9439 53.0183C9.95194 53.0183 9.10902 53.0183 8.26609 53.0183L8.33129 53.0834C8.33129 52.2134 8.33129 51.3388 8.33129 50.2269C7.22291 50.2269 6.34739 50.2269 5.47186 50.2269L5.54172 50.2874Z" fill="#686062"></path>
                                    <path d="M89.2945 78.2012C90.1374 78.2012 90.985 78.2012 91.9769 78.2012C91.9769 79.997 91.9769 81.7277 91.9769 83.7189C90.1514 83.7189 88.3304 83.7189 86.5049 83.7189L86.5701 83.7887C86.5701 82.835 86.5701 81.8859 86.5701 80.9322L86.5049 80.9973C87.3758 80.9973 88.2513 80.9973 89.3643 80.9973C89.3643 79.8854 89.3643 79.0154 89.3643 78.1407L89.2945 78.2012Z" fill="#686062"></path>
                                    <path d="M27.8955 86.5147C26.1352 86.5147 24.3795 86.5147 22.4468 86.5147C22.4468 84.7328 22.4468 83.0161 22.4468 81.0714C23.1733 81.0389 23.965 81.0017 24.901 80.9551C25.0035 81.881 25.0873 82.6858 25.1944 83.6535C26.1026 83.7 26.9967 83.7465 27.8909 83.7931L27.8257 83.7233C27.8257 84.677 27.8257 85.6261 27.8257 86.5798L27.8955 86.5147Z" fill="#686062"></path>
                                    <path d="M5.54241 44.7046C5.54241 42.8204 5.53775 40.9362 5.53775 39.0566L5.47255 39.1264C6.36671 39.1264 7.26086 39.1264 8.15501 39.1264C8.2761 40.1779 8.37389 40.9827 8.47169 41.8527C9.44502 41.8527 10.2833 41.8527 11.1262 41.8527C11.075 42.7506 11.0284 43.6485 10.9725 44.6441C9.01657 44.6441 7.24223 44.6441 5.4679 44.6441L5.54241 44.7046Z" fill="#686062"></path>
                                    <path d="M27.8915 83.7887C27.8915 82.0254 27.8915 80.2575 27.8915 78.3315C29.7077 78.3315 31.4355 78.3315 33.4194 78.3315C33.4194 79.2154 33.4194 80.104 33.4194 80.9973L33.4846 80.9275C32.6137 80.9275 31.7382 80.9275 30.6252 80.9275C30.6252 82.0394 30.6252 82.9094 30.6252 83.784L30.6904 83.7189C29.7357 83.7189 28.7856 83.7189 27.8309 83.7189L27.8915 83.7887Z" fill="#686062"></path>
                                    <path d="M86.505 83.7191C86.505 85.5149 86.505 87.3107 86.505 89.3065C85.4665 89.3065 84.5863 89.3065 83.7061 89.3065L83.776 89.3716C83.7527 87.4874 83.7294 85.6079 83.7061 83.7237C84.6608 83.747 85.6155 83.7656 86.5702 83.7888C86.5702 83.7842 86.505 83.7191 86.505 83.7191Z" fill="#686062"></path>
                                    <path d="M5.54151 53.018C3.77649 53.018 2.00681 53.018 0.0787964 53.018C0.0787964 52.1294 0.0787964 51.3292 0.0787964 50.2871C1.88107 50.2871 3.71129 50.2871 5.54151 50.2871L5.47166 50.222C5.47166 51.1757 5.47166 52.1248 5.47166 53.0785L5.54151 53.018Z" fill="#686062"></path>
                                    <path d="M5.54174 47.4354C4.70347 47.4354 3.86054 47.4354 2.86859 47.4354C2.86859 46.5607 2.86859 45.7605 2.86859 44.7091C3.75343 44.7091 4.64758 44.7091 5.54174 44.7091L5.47188 44.644C5.47188 45.5977 5.47188 46.5468 5.47188 47.5005L5.54174 47.4354Z" fill="#686062"></path>
                                    <path d="M39.0681 58.6659C39.0681 57.7121 39.0681 56.7584 39.0681 55.8047L39.0029 55.8745C39.8738 55.8745 40.7493 55.8745 41.7972 55.8745C41.7972 56.9166 41.7972 57.7912 41.7972 58.6659L41.8624 58.6007C40.9077 58.6007 39.9576 58.6007 39.0029 58.6007L39.0681 58.6659Z" fill="#686062"></path>
                                    <path d="M89.2247 36.451C89.2247 37.3815 89.2247 38.1305 89.2247 38.9819C88.3771 38.9819 87.6274 38.9819 86.7053 38.9819C86.7053 38.2096 86.7053 37.4094 86.7053 36.451C87.4644 36.451 88.2654 36.451 89.2247 36.451Z" fill="#686062"></path>
                                    <path d="M22.2376 58.5962C22.2376 59.5499 22.2329 60.5036 22.2329 61.4527L22.3028 61.3876C21.3481 61.4109 20.3934 61.4295 19.4387 61.4527C19.462 60.499 19.4853 59.5499 19.5086 58.5962L19.4434 58.6613C20.3981 58.6613 21.3481 58.6613 22.3028 58.6613L22.2376 58.5962Z" fill="#686062"></path>
                                    <path d="M22.2324 61.4528C23.0753 61.4528 23.9136 61.4528 24.9056 61.4528C24.9056 62.3275 24.9056 63.1277 24.9056 64.1791C24.0207 64.1791 23.1266 64.1791 22.2324 64.1791L22.3023 64.2442C22.3023 63.2905 22.3023 62.3414 22.3023 61.3877L22.2324 61.4528Z" fill="#686062"></path>
                                    <path d="M30.6246 61.3832C30.6246 62.2206 30.6246 63.058 30.6246 64.0536C29.7584 64.0536 28.9574 64.0536 28.0074 64.0536C28.0074 63.2906 28.0074 62.4904 28.0074 61.4483C28.9062 61.4483 29.8004 61.4483 30.6898 61.4483L30.6246 61.3832Z" fill="#686062"></path>
                                    <path d="M86.7053 30.8029C87.5854 30.8029 88.3352 30.8029 89.2061 30.8029C89.2061 31.6915 89.2061 32.4917 89.2061 33.3989C88.3678 33.3989 87.618 33.3989 86.7053 33.3989C86.7053 32.6173 86.7053 31.8125 86.7053 30.8029Z" fill="#686062"></path>
                                    <path d="M2.66913 67.0306C3.5074 67.0306 4.34567 67.0306 5.34227 67.0306C5.34227 67.896 5.34227 68.6962 5.34227 69.6453C4.57852 69.6453 3.77751 69.6453 2.73433 69.6453C2.73433 68.7474 2.73433 67.8541 2.73433 66.9655C2.73898 66.9655 2.66913 67.0306 2.66913 67.0306Z" fill="#686062"></path>
                                    <path d="M11.0654 66.9655C11.0654 67.8029 11.0654 68.6404 11.0654 69.636C10.1992 69.636 9.39816 69.636 8.44812 69.636C8.44812 68.873 8.44812 68.0728 8.44812 67.0306C9.34693 67.0306 10.2411 67.0306 11.1306 67.0306L11.0654 66.9655Z" fill="#686062"></path>
                                    <path d="M50.2452 25.1693C50.2452 24.2947 50.2452 23.42 50.2452 22.3779C51.293 22.3779 52.1686 22.3779 53.0394 22.3779L52.9742 22.3081C52.9742 23.1781 52.9742 24.0527 52.9742 25.0995C51.9264 25.0995 51.0509 25.0995 50.18 25.0995L50.2452 25.1693Z" fill="#686062"></path>
                                    <path d="M0 25.0297C0 24.1225 0 23.3781 0 22.4849C0.856897 22.4849 1.65791 22.4849 2.58466 22.4849C2.58466 23.3223 2.58466 24.1225 2.58466 25.0297C1.74174 25.0297 0.996609 25.0297 0 25.0297Z" fill="#686062"></path>
                                    <path d="M52.979 19.5912C53.9291 19.5912 54.8791 19.5912 55.8292 19.5865L55.764 19.5167C55.764 20.4705 55.764 21.4195 55.764 22.3733L55.8292 22.3081C54.8745 22.3081 53.9244 22.3081 52.9697 22.3081L53.0349 22.3779C53.0396 21.4242 53.0396 20.4751 53.0442 19.5214L52.979 19.5912Z" fill="#686062"></path>
                                    <path d="M55.8337 19.5865C55.8337 18.749 55.8337 17.907 55.8337 16.916C56.7139 16.916 57.5149 16.916 58.5627 16.916C58.5627 17.8 58.5627 18.6932 58.5627 19.5865L58.6279 19.5167C57.6732 19.5167 56.7232 19.5167 55.7685 19.5167L55.8337 19.5865Z" fill="#686062"></path>
                                    <path d="M53.0485 19.5211C52.2102 19.5211 51.372 19.5211 50.3754 19.5211C50.3754 18.6511 50.3754 17.8556 50.3754 16.9065C51.1391 16.9065 51.9401 16.9065 52.9833 16.9065C52.9833 17.8044 52.9833 18.6976 52.9833 19.5862C52.9787 19.5909 53.0485 19.5211 53.0485 19.5211Z" fill="#686062"></path>
                                    <path d="M61.4308 11.1468C60.5926 11.1468 59.7543 11.1468 58.7577 11.1468C58.7577 10.2815 58.7577 9.4813 58.7577 8.53223C59.5214 8.53223 60.3225 8.53223 61.3656 8.53223C61.3656 9.43013 61.3656 10.3234 61.3656 11.212C61.361 11.2166 61.4308 11.1468 61.4308 11.1468Z" fill="#686062"></path>
                                    <path d="M25.102 11.1469C24.2637 11.1469 23.4208 11.1469 22.4288 11.1469C22.4288 10.2676 22.4288 9.46738 22.4288 8.4206C23.3137 8.4206 24.2078 8.4206 25.102 8.4206L25.0321 8.35547C25.0321 9.3092 25.0321 10.2583 25.0321 11.212L25.102 11.1469Z" fill="#686062"></path>
                                    <path d="M44.5865 5.6247C45.5412 5.6247 46.4959 5.62936 47.4459 5.62936L47.3807 5.55957C47.3807 6.42956 47.3807 7.3042 47.3807 8.42076C46.3329 8.42076 45.462 8.42076 44.5865 8.42076C44.6098 7.46703 44.6284 6.5133 44.6517 5.55957L44.5865 5.6247Z" fill="#686062"></path>
                                    <path d="M55.8378 83.7238C54.8831 83.7191 53.9331 83.7191 52.9784 83.7145L53.0436 83.7796C53.0436 82.8305 53.039 81.8768 53.039 80.9277L52.9738 80.9975C53.8446 80.9975 54.7201 80.9975 55.768 80.9975C55.768 82.0443 55.768 82.9189 55.768 83.7889L55.8378 83.7238Z" fill="#686062"></path>
                                    <path d="M47.4505 5.62918C47.4505 4.79176 47.4505 3.94969 47.4505 2.95874C48.3306 2.95874 49.1316 2.95874 50.1795 2.95874C50.1795 3.84268 50.1795 4.73593 50.1795 5.62918L50.2447 5.5594C49.29 5.5594 48.3399 5.5594 47.3853 5.5594L47.4505 5.62918Z" fill="#686062"></path>
                                    <path d="M52.9787 83.7141C52.9787 84.5515 52.9787 85.3889 52.9787 86.3845C52.1125 86.3845 51.3115 86.3845 50.3615 86.3845C50.3615 85.6215 50.3615 84.826 50.3615 83.7792C51.2603 83.7792 52.1544 83.7792 53.0439 83.7792L52.9787 83.7141Z" fill="#686062"></path>
                                    <path d="M33.4094 2.8332C34.2849 2.8332 35.1605 2.8332 36.2083 2.8332C36.2083 3.88463 36.2083 4.75461 36.2083 5.62925L36.2735 5.55947C35.3188 5.55947 34.3688 5.55947 33.4141 5.55947L33.4793 5.6246C33.4793 4.67087 33.4793 3.7218 33.4793 2.76807L33.4094 2.8332Z" fill="#686062"></path>
                                    <path d="M89.4153 89.2321C89.4153 88.3249 89.4153 87.5805 89.4153 86.6873C90.2722 86.6873 91.0732 86.6873 91.9999 86.6873C91.9999 87.5247 91.9999 88.3249 91.9999 89.2321C91.157 89.2321 90.4119 89.2321 89.4153 89.2321Z" fill="#686062"></path>
                                    <path d="M22.377 91.9768C22.377 91.0463 22.377 90.2973 22.377 89.4459C23.2293 89.4459 23.9744 89.4459 24.8965 89.4459C24.8965 90.2182 24.8965 91.0184 24.8965 91.9768C24.1374 91.9768 23.3317 91.9768 22.377 91.9768Z" fill="#686062"></path>
                                    <path d="M47.5209 89.418C48.429 89.418 49.1741 89.418 50.0683 89.418C50.0683 90.2741 50.0683 91.0743 50.0683 92.0001C49.23 92.0001 48.429 92.0001 47.5209 92.0001C47.5209 91.1627 47.5209 90.4136 47.5209 89.418Z" fill="#686062"></path>
                                    <path d="M55.7725 89.2971C55.7725 90.1345 55.7725 90.9719 55.7725 91.9675C54.9063 91.9675 54.1053 91.9675 53.1552 91.9675C53.1552 91.2045 53.1552 90.409 53.1552 89.3622C54.054 89.3622 54.9482 89.3622 55.8377 89.3622L55.7725 89.2971Z" fill="#686062"></path>
                                    <path d="M33.4139 41.9132C33.4139 41.0432 33.4139 40.1685 33.4139 39.1218C32.3661 39.1218 31.4906 39.1218 30.6197 39.1218C30.6197 38.168 30.6197 37.2189 30.6197 36.2652C31.4906 36.2652 32.3661 36.2652 33.4139 36.2652C33.4139 35.2184 33.4139 34.3438 33.4139 33.4738C34.2475 33.4738 35.0858 33.4738 36.0498 33.4738C36.1616 34.3903 36.2547 35.1905 36.3711 36.1443C37.1535 36.1443 37.9499 36.1443 38.9046 36.1443C38.9791 35.3673 39.0629 34.5671 39.1561 33.6087C40.0782 33.5622 40.9723 33.5203 41.8618 33.4738C41.8618 36.1675 41.8618 38.8566 41.8618 41.7085C42.7327 41.8062 43.5383 41.8992 44.5163 42.0109C44.5629 42.9088 44.6095 43.8067 44.656 44.7046C41.8385 44.7046 39.0257 44.7046 36.2081 44.7046C36.2081 43.7555 36.2035 42.8064 36.2035 41.8527C37.0976 41.8527 37.9871 41.8527 38.886 41.8527C38.886 40.8106 38.886 40.0104 38.886 39.2474C37.9359 39.2474 37.1396 39.2474 36.2687 39.2474C36.2687 40.243 36.2687 41.0804 36.2687 41.9178C35.3187 41.9225 34.364 41.9178 33.4139 41.9132Z" fill="#686062"></path>
                                    <path d="M53.0389 55.8051C51.1528 55.8284 49.2714 55.8516 47.3853 55.8749C47.3853 55.0375 47.3853 54.2047 47.3853 53.237C48.3073 53.1253 49.113 53.0323 50.0584 52.9206C50.1469 52.1344 50.2354 51.3295 50.3378 50.3898C52.0749 50.3898 53.8027 50.3898 55.7633 50.3898C55.7633 51.3063 55.7633 52.1902 55.7633 53.0788L55.8331 53.0137C54.9623 53.0137 54.0867 53.0137 52.9737 53.0137C52.9737 54.1256 52.9737 54.9956 52.9737 55.8702L53.0389 55.8051Z" fill="#686062"></path>
                                    <path d="M61.4217 53.0786C60.467 53.0786 59.517 53.0786 58.5623 53.0786C58.5623 52.2412 58.5623 51.3992 58.5623 50.4082C59.503 50.4082 60.304 50.4082 61.2866 50.4082C61.3332 51.2875 61.3751 52.1854 61.4217 53.0786Z" fill="#686062"></path>
                                    <path d="M61.2217 47.375C60.3415 47.375 59.5917 47.375 58.7208 47.375C58.7208 46.4864 58.7208 45.6862 58.7208 44.779C59.5591 44.779 60.3089 44.779 61.2217 44.779C61.2217 45.5652 61.2217 46.3701 61.2217 47.375Z" fill="#686062"></path>
                                    <path d="M58.6276 53.0134C58.6276 53.8834 58.6276 54.758 58.6276 55.8001C57.5146 55.8001 56.6437 55.8001 55.7682 55.8001L55.8334 55.8699C55.8334 54.9162 55.8334 53.9671 55.8334 53.0134L55.7635 53.0785C56.7182 53.0599 57.6729 53.0366 58.6276 53.0134Z" fill="#686062"></path>
                                    <path d="M64.1557 39.0516C64.1557 39.8891 64.1557 40.7265 64.1557 41.7221C63.2848 41.7221 62.4885 41.7221 61.5385 41.7221C61.5385 40.9591 61.5385 40.1589 61.5385 39.1168C62.4373 39.1168 63.3314 39.1168 64.2209 39.1168L64.1557 39.0516Z" fill="#686062"></path>
                                    <path d="M47.3762 36.3254C48.2145 36.3254 49.0528 36.3254 50.0494 36.3254C50.0494 37.1954 50.0494 37.9956 50.0494 38.94C49.2856 38.94 48.4846 38.94 47.4414 38.94C47.4414 38.0421 47.4414 37.1489 47.4414 36.2603C47.4461 36.2603 47.3762 36.3254 47.3762 36.3254Z" fill="#686062"></path>
                                    <path d="M72.5665 59.8289C74.7733 59.8289 76.5622 58.0417 76.5622 55.8372C76.5622 53.6326 74.7733 51.8455 72.5665 51.8455C70.3597 51.8455 68.5707 53.6326 68.5707 55.8372C68.5707 58.0417 70.3597 59.8289 72.5665 59.8289Z" fill="#686062"></path>
                                    <path d="M64.2165 78.1362C64.2165 79.9088 64.2165 81.6813 64.2165 83.6306C63.1547 83.6865 62.2559 83.7376 61.3571 83.7842C61.3571 82.0116 61.3571 80.2391 61.3571 78.2898C62.4189 78.2339 63.3177 78.1874 64.2165 78.1362Z" fill="#686062"></path>
                                    <path d="M69.8048 58.5962C69.8048 60.4804 69.8048 62.3599 69.8048 64.2441C68.9619 64.2441 68.1143 64.2441 67.127 64.2441C67.127 62.3832 67.127 60.6479 67.127 58.7358C68.0165 58.6892 68.9107 58.6427 69.8048 58.5962Z" fill="#686062"></path>
                                    <path d="M55.768 55.8047C55.7913 56.7584 55.8099 57.7121 55.8332 58.6659C54.9577 58.6659 54.0821 58.6659 53.039 58.6659C53.039 57.5493 53.039 56.6793 53.039 55.8047L52.9738 55.8745C53.9284 55.8745 54.8785 55.8745 55.8332 55.8745C55.8332 55.8698 55.768 55.8047 55.768 55.8047Z" fill="#686062"></path>
                                    <path d="M46.0214 73.786C47.1377 73.786 48.0426 71.9989 48.0426 69.7943C48.0426 67.5898 47.1377 65.8026 46.0214 65.8026C44.9051 65.8026 44.0002 67.5898 44.0002 69.7943C44.0002 71.9989 44.9051 73.786 46.0214 73.786Z" fill="#686062"></path>
                                    <path d="M72.6736 75.2281C72.6736 74.2977 72.6736 73.5486 72.6736 72.6973C73.5259 72.6973 74.271 72.6973 75.1931 72.6973C75.1931 73.4742 75.1931 74.2744 75.1931 75.2281C74.434 75.2281 73.633 75.2281 72.6736 75.2281Z" fill="#686062"></path>
                                    <path d="M83.7101 67.0357C83.7101 66.0819 83.7101 65.1329 83.7101 64.1791C84.6648 64.1791 85.6148 64.1791 86.5695 64.1791C86.5695 65.0491 86.5695 65.9238 86.5695 67.0357C85.4565 67.0357 84.581 67.0357 83.7101 67.0357Z" fill="#686062"></path>
                                    <path d="M83.7758 80.9277C83.7758 81.8815 83.7758 82.8305 83.7758 83.7843C82.9049 83.7843 82.0294 83.7843 80.9163 83.7843C80.9163 82.6724 80.9163 81.8024 80.9163 80.9277C81.871 80.9277 82.8211 80.9277 83.7758 80.9277Z" fill="#686062"></path>
                                    <path d="M82.3462 64.8352C83.4625 64.8352 84.3674 63.9312 84.3674 62.8161C84.3674 61.701 83.4625 60.797 82.3462 60.797C81.23 60.797 80.3251 61.701 80.3251 62.8161C80.3251 63.9312 81.23 64.8352 82.3462 64.8352Z" fill="#686062"></path>
                                    <path d="M41.7968 8.35107C42.7514 8.35107 43.7015 8.35107 44.6562 8.35107C44.6562 9.3048 44.6562 10.2539 44.6562 11.2076C43.7853 11.2076 42.9098 11.2076 41.7968 11.2076C41.7968 10.0957 41.7968 9.22571 41.7968 8.35107Z" fill="#686062"></path>
                                    <path d="M25.0965 39.1218C24.2582 39.1218 23.4199 39.1218 22.4466 39.1218C22.3442 39.9871 22.251 40.792 22.1392 41.7411C20.4161 41.7411 18.6884 41.7411 16.7138 41.7411C16.7138 40.8339 16.7138 39.9453 16.7138 39.0567L16.6439 39.1218C17.5148 39.1218 18.3903 39.1218 19.5034 39.1218C19.5034 38.0145 19.5034 37.1399 19.5034 36.2653L19.4382 36.335C21.3243 36.3118 23.2057 36.2885 25.0918 36.2653C25.0965 37.219 25.0965 38.1727 25.0965 39.1218Z" fill="#686062"></path>
                                    <path d="M13.8551 39.1218C13.8551 38.1681 13.8551 37.219 13.8551 36.2653C14.8098 36.2885 15.7598 36.3118 16.7145 36.335L16.6493 36.2653C16.6493 37.219 16.6493 38.1681 16.6493 39.1218L16.7192 39.0567C15.7645 39.0799 14.8098 39.1032 13.8551 39.1218Z" fill="#686062"></path>
                                    <path d="M16.7141 36.3345C16.7141 35.4971 16.7141 34.655 16.7141 33.6641C17.5896 33.6641 18.3907 33.6641 19.4432 33.6641C19.4432 34.548 19.4432 35.4413 19.4432 36.3345L19.5084 36.2647C18.5537 36.2647 17.6036 36.2647 16.6489 36.2647L16.7141 36.3345Z" fill="#686062"></path>
                                    <path d="M30.6848 39.0566C30.6848 40.0104 30.6848 40.9594 30.6848 41.9132C28.8872 41.9132 27.0896 41.9132 25.1569 41.9132C25.1104 40.8152 25.0684 39.9359 25.0312 39.0566C26.9173 39.0566 28.7987 39.0566 30.6848 39.0566Z" fill="#686062"></path>
                                    <path d="M5.6214 5.69006C8.3644 5.69006 10.9677 5.69006 13.7247 5.69006C13.7247 8.37912 13.7247 11.0309 13.7247 13.827C11.0515 13.827 8.397 13.827 5.6214 13.827C5.6214 11.1566 5.6214 8.5559 5.6214 5.69006Z" fill="#686062"></path>
                                    <path d="M78.327 5.69006C81.0746 5.69006 83.6733 5.69006 86.4069 5.69006C86.4069 8.4396 86.4069 11.0914 86.4069 13.8596C83.7059 13.8596 81.1026 13.8596 78.327 13.8596C78.327 11.2124 78.327 8.5559 78.327 5.69006Z" fill="#686062"></path>
                                    <path d="M5.60748 86.4219C5.60748 83.6956 5.60748 81.095 5.60748 78.3315C8.28529 78.3315 10.9445 78.3315 13.7433 78.3315C13.7433 80.988 13.7433 83.6445 13.7433 86.4219C11.0795 86.4219 8.47622 86.4219 5.60748 86.4219Z" fill="#686062"></path>
                                    <path d="M16.7141 50.2219C15.8665 50.2219 15.0189 50.2219 14.0316 50.2219C14.0316 48.4075 14.0316 46.6722 14.0316 44.8019C16.6908 44.8019 19.2987 44.8019 22.0883 44.8019C22.0883 46.4907 22.0883 48.2214 22.0883 50.2219C21.2314 50.2219 20.3373 50.2219 19.4431 50.2219L19.5083 50.2917C19.4617 49.3938 19.4198 48.5006 19.3733 47.6213C18.3953 47.6213 17.5896 47.6213 16.6489 47.6213C16.6489 48.6122 16.6489 49.4496 16.6489 50.2917L16.7141 50.2219Z" fill="#686062"></path>
                                    <path d="M19.4432 50.222C19.4432 51.0641 19.4432 51.9015 19.4432 52.8924C18.5676 52.8924 17.7666 52.8924 16.7141 52.8924C16.7141 52.0085 16.7141 51.1152 16.7141 50.222L16.6489 50.2918C17.6036 50.2918 18.5537 50.2918 19.5084 50.2918L19.4432 50.222Z" fill="#686062"></path>
                                    <path d="M11.0604 41.9132C11.0604 41.0432 11.0604 40.1685 11.0604 39.0566C12.1735 39.0566 13.0443 39.0566 13.9199 39.0566C13.9199 39.9266 13.9199 40.8013 13.9199 41.9132C12.8068 41.9132 11.9313 41.9132 11.0604 41.9132Z" fill="#686062"></path>
                                    <path d="M44.6562 75.4099C43.7015 75.4099 42.7514 75.4099 41.7968 75.4099C41.7968 74.5399 41.7968 73.6653 41.7968 72.5533C42.9098 72.5533 43.7807 72.5533 44.6562 72.5533C44.6562 73.5071 44.6562 74.4608 44.6562 75.4099Z" fill="#686062"></path>
                                    <path d="M19.5084 61.3877C19.5084 62.3414 19.5084 63.2905 19.5084 64.2442C18.6375 64.2442 17.762 64.2442 16.6489 64.2442C16.6489 63.1323 16.6489 62.2623 16.6489 61.3877C17.6036 61.3877 18.5537 61.3877 19.5084 61.3877Z" fill="#686062"></path>
                                </svg>