<svg width="16" height="20" viewBox="0 0 16 20" fill="none" xmlns="http://www.w3.org/2000/svg">
<g clip-path="url(#clip0_2115_12753)">
<path d="M15.3235 0.324309C14.7685 0.524309 14.1094 0.80539 13.459 1.18377C11.9587 2.05944 11.343 2.97836 10.9788 3.5189C9.13163 6.28647 9.74735 10.5405 9.83407 11.0432H10.6753C12.3576 11.0432 13.7192 11.8919 13.7192 12.9405V20.0054H15.9999V0.491877C15.9999 0.318904 15.6097 0.221606 15.3322 0.324309H15.3235Z" fill="currentColor"/>
<path d="M6.35664 0V6.66486H5.74959V0H4.26667V6.66486H3.65962V0H2.17669V6.66486H1.56965V0H0V7.61622C0 8.55135 1.21409 9.30811 2.71436 9.30811H2.80976V20H5.09051V9.30811H5.18591C6.68618 9.30811 7.90027 8.55135 7.90027 7.61622V0H6.35664Z" fill="currentColor"/>
</g>
<defs>
<clipPath id="clip0_2115_12753">
<rect width="16" height="20" fill="white"/>
</clipPath>
</defs>
</svg>
