<svg width="19" height="19" viewBox="0 0 19 19" fill="none" xmlns="http://www.w3.org/2000/svg">
<path fill-rule="evenodd" clip-rule="evenodd" d="M7.125 1.58301C7.57426 1.58298 8.01838 1.67855 8.42786 1.86336C8.83734 2.04818 9.20282 2.31801 9.5 2.65492C9.79718 2.31801 10.1627 2.04818 10.5721 1.86336C10.9816 1.67855 11.4257 1.58298 11.875 1.58301H12.2708C12.5858 1.58301 12.8878 1.70812 13.1105 1.93082C13.3332 2.15352 13.4583 2.45556 13.4583 2.77051V3.16634C13.4583 3.74347 13.304 4.28417 13.0348 4.74967H15.0417C15.4616 4.74967 15.8643 4.91649 16.1613 5.21342C16.4582 5.51035 16.625 5.91308 16.625 6.33301V8.70801C16.625 8.98593 16.5518 9.25896 16.4129 9.49965C16.2739 9.74034 16.074 9.94021 15.8333 10.0792V14.2497C15.8333 14.8796 15.5831 15.4837 15.1377 15.9291C14.6923 16.3745 14.0882 16.6247 13.4583 16.6247H5.54167C4.91178 16.6247 4.30769 16.3745 3.86229 15.9291C3.41689 15.4837 3.16667 14.8796 3.16667 14.2497V10.0792C2.92598 9.94021 2.7261 9.74034 2.58714 9.49965C2.44817 9.25896 2.37501 8.98593 2.375 8.70801V6.33301C2.375 5.91308 2.54181 5.51035 2.83875 5.21342C3.13568 4.91649 3.53841 4.74967 3.95833 4.74967H5.96521C5.68752 4.26821 5.54145 3.72214 5.54167 3.16634V2.77051C5.54167 2.45556 5.66678 2.15352 5.88948 1.93082C6.11218 1.70812 6.41422 1.58301 6.72917 1.58301H7.125ZM14.25 10.2913H10.2917V15.0413H13.4583L13.551 15.0358C13.7277 15.015 13.8922 14.9352 14.018 14.8094C14.1439 14.6836 14.2236 14.519 14.2445 14.3423L14.25 14.2497V10.2913ZM8.70833 10.2913H4.75V14.2497C4.75003 14.4436 4.82122 14.6307 4.95007 14.7756C5.07892 14.9205 5.25647 15.0131 5.44904 15.0358L5.54167 15.0413H8.70833V10.2913ZM15.0417 6.33301H10.2917V8.70801H15.0417V6.33301ZM8.70833 6.33301H3.95833V8.70801H8.70833V6.33301ZM7.125 3.16634C7.125 3.58627 7.29182 3.98899 7.58875 4.28593C7.88568 4.58286 8.28841 4.74967 8.70833 4.74967C8.70833 4.32975 8.54152 3.92702 8.24459 3.63009C7.94765 3.33316 7.54493 3.16634 7.125 3.16634ZM11.875 3.16634C11.4551 3.16634 11.0523 3.33316 10.7554 3.63009C10.4585 3.92702 10.2917 4.32975 10.2917 4.74967C10.7116 4.74967 11.1143 4.58286 11.4113 4.28593C11.7082 3.98899 11.875 3.58627 11.875 3.16634Z" fill="#A02525"/>
</svg>
