<svg width="6" height="13" viewBox="0 0 6 13" fill="none" xmlns="http://www.w3.org/2000/svg">
<path d="M3.9 3.25H1.3C0.585 3.25 0 3.835 0 4.55V7.8C0 8.1575 0.2925 8.45 0.65 8.45H1.3V12.35C1.3 12.7075 1.5925 13 1.95 13H3.25C3.6075 13 3.9 12.7075 3.9 12.35V8.45H4.55C4.9075 8.45 5.2 8.1575 5.2 7.8V4.55C5.2 3.835 4.615 3.25 3.9 3.25Z" fill="currentColor"/>
<path d="M2.5998 2.6C3.31777 2.6 3.8998 2.01797 3.8998 1.3C3.8998 0.58203 3.31777 0 2.5998 0C1.88183 0 1.2998 0.58203 1.2998 1.3C1.2998 2.01797 1.88183 2.6 2.5998 2.6Z" fill="currentColor"/>
</svg>
