<svg id="pdf" width="17" height="23" xmlns="http://www.w3.org/2000/svg" viewBox="0 0 17 23">
    <title>pdf</title>
    <path d="M4.355 8.832a2.176 2.176 0 001.5-.435 1.689 1.689 0 00.483-1.353 1.8 1.8 0 00-.483-1.378 2.2 2.2 0 00-1.523-.459h-1.62v5.027h1.015v-1.4zm-.628-2.658h.58a1.263 1.263 0 01.749.193.725.725 0 01.242.628 1 1 0 01-.193.653.9.9 0 01-.7.218h-.677zm6.383 3.359a2.558 2.558 0 00.628-1.861 2.509 2.509 0 00-.653-1.837A2.552 2.552 0 008.2 5.182H6.582v5.027h1.571a2.482 2.482 0 001.957-.676zm-.773-.677a1.37 1.37 0 01-1.063.387h-.653V6.174h.58a1.576 1.576 0 011.16.411 1.652 1.652 0 01.387 1.136 1.788 1.788 0 01-.411 1.135zm4.901-2.658v-.991h-3.142v5.027h1.015V8.252h2.006v-.967h-2.006V6.198z" fill="#ffffff"></path>

    <path d="M15.49 0H1.463A1.476 1.476 0 000 1.5v17.582a1.476 1.476 0 001.463 1.5h3.228l-.441-.453-.441-.453H1.486a.583.583 0 01-.581-.6V1.5a.583.583 0 01.581-.6h14.051a.583.583 0 01.581.6v17.582a.583.583 0 01-.581.6h-2l-.441.453-.441.453h2.88a1.476 1.476 0 001.463-1.5V1.5A1.531 1.531 0 0015.49 0z" fill="#ffffff"></path>
    <path d="M13.471 17.731l-2.961-.024v-5.22H6.441v5.148l-2.961-.048L8.544 23z" fill="#ffffff"></path>
</svg>