<svg width="23" height="17" viewBox="0 0 23 17" fill="none" xmlns="http://www.w3.org/2000/svg">
<path d="M15.6028 7.3266C17.3162 7.3266 18.689 5.75401 18.689 3.80588C18.689 1.85775 17.3162 0.285156 15.6028 0.285156C13.8894 0.285156 12.5063 1.85775 12.5063 3.80588C12.5063 5.75401 13.8894 7.3266 15.6028 7.3266ZM7.34537 7.3266C9.05879 7.3266 10.4316 5.75401 10.4316 3.80588C10.4316 1.85775 9.05879 0.285156 7.34537 0.285156C5.63195 0.285156 4.24883 1.85775 4.24883 3.80588C4.24883 5.75401 5.63195 7.3266 7.34537 7.3266ZM7.34537 9.67375C4.94039 9.67375 0.120117 11.0468 0.120117 13.7813V15.5416C0.120117 16.1871 0.584598 16.7152 1.1523 16.7152H13.5384C14.1061 16.7152 14.5706 16.1871 14.5706 15.5416V13.7813C14.5706 11.0468 9.75035 9.67375 7.34537 9.67375ZM15.6028 9.67375C15.3035 9.67375 14.9629 9.69723 14.6016 9.73243C14.6222 9.74417 14.6326 9.76764 14.6429 9.77938C15.8196 10.7534 16.635 12.0561 16.635 13.7813V15.5416C16.635 15.9524 16.5627 16.3514 16.4492 16.7152H21.7959C22.3636 16.7152 22.8281 16.1871 22.8281 15.5416V13.7813C22.8281 11.0468 18.0078 9.67375 15.6028 9.67375Z" fill="#A9A9A9"/>
</svg>
