<svg width="24" height="24" viewBox="0 0 24 24" fill="none" xmlns="http://www.w3.org/2000/svg">
<path d="M20.5842 21.2442C20.5334 21.3919 20.4377 21.52 20.3106 21.6106C20.1834 21.7013 20.0312 21.75 19.875 21.75C16.4484 21.75 13.7081 21.0619 11.7295 19.7039C9.33891 18.0633 8.05172 15.4753 7.89188 12L4.125 12C3.97815 12 3.83452 11.9569 3.71195 11.876C3.58938 11.7951 3.49325 11.68 3.4355 11.5449C3.37775 11.4099 3.3609 11.2609 3.38706 11.1164C3.41322 10.9719 3.48124 10.8382 3.58266 10.732L11.4577 2.48203C11.5277 2.40872 11.6119 2.35036 11.7051 2.3105C11.7983 2.27063 11.8986 2.25007 12 2.25007C12.1014 2.25007 12.2017 2.27063 12.2949 2.31049C12.3882 2.35036 12.4723 2.40872 12.5423 2.48203L20.4173 10.732C20.5188 10.8382 20.5868 10.9719 20.6129 11.1164C20.6391 11.2609 20.6223 11.4099 20.5645 11.5449C20.5068 11.68 20.4106 11.7951 20.2881 11.876C20.1655 11.9569 20.0219 12 19.875 12L16.1358 12C16.1995 14.1094 16.5413 15.7031 17.197 16.972C17.9058 18.3431 18.9647 19.3373 20.3377 20.4089C20.4608 20.505 20.5508 20.6372 20.5951 20.7869C20.6395 20.9367 20.636 21.0965 20.5852 21.2442L20.5842 21.2442Z" fill="currentColor"/>
</svg>
