<svg width="100" height="70" viewBox="0 0 100 70" fill="none" xmlns="http://www.w3.org/2000/svg">
<path d="M0.917969 67.0078H1.20026L2.0824 68.1722L2.92926 67.0078H3.17626V69.3014H2.89397V67.5018L2.11769 68.5604H2.01183L1.20026 67.5018V69.3014H0.917969V67.0078Z" fill="currentColor"/>
<path d="M5.50609 68.2781H4.12994V69.3014H3.84766V67.0078H4.12994V67.9958H5.50609V67.0078H5.78838V69.3014H5.50609V68.2781Z" fill="currentColor"/>
<path d="M7.48084 66.9727C8.11598 66.9727 8.64527 67.4667 8.64527 68.1371C8.64527 68.8075 8.11598 69.3015 7.48084 69.3015C6.84569 69.3015 6.31641 68.8075 6.31641 68.1371C6.31641 67.4667 6.84569 66.9727 7.48084 66.9727ZM7.48084 69.0545C7.97484 69.0545 8.3277 68.6664 8.3277 68.1724C8.3277 67.6431 7.93955 67.2902 7.48084 67.2902C7.02212 67.2902 6.63398 67.6431 6.63398 68.1724C6.63398 68.6664 7.02212 69.0545 7.48084 69.0545Z" fill="currentColor"/>
<path d="M9.17578 67.0078H10.7989V67.2901H9.45807V69.3014H9.17578V67.0078Z" fill="currentColor"/>
<path d="M12.139 66.9727C12.7742 66.9727 13.3035 67.4667 13.3035 68.1371C13.3035 68.8075 12.7742 69.3015 12.139 69.3015C11.5039 69.3015 10.9746 68.8075 10.9746 68.1371C10.9746 67.4667 11.5039 66.9727 12.139 66.9727ZM12.139 69.0545C12.633 69.0545 12.9859 68.6664 12.9859 68.1724C12.9859 67.6431 12.5978 67.2902 12.139 67.2902C11.6803 67.2902 11.2922 67.6431 11.2922 68.1724C11.2922 68.6664 11.6803 69.0545 12.139 69.0545Z" fill="currentColor"/>
<path d="M14.8558 69.0544C14.1148 69.0544 13.6914 68.6663 13.6914 68.1017C13.6914 67.4665 14.1854 67.149 14.8558 67.149V66.9373H15.1734V67.149C15.8086 67.149 16.3378 67.4665 16.3378 68.1017C16.3378 68.6663 15.9144 69.0544 15.1734 69.0544V69.3367H14.8911V69.0544H14.8558ZM14.8558 68.8074V67.4665C14.3618 67.4665 14.009 67.6783 14.009 68.137C14.009 68.5251 14.2913 68.8074 14.8558 68.8074ZM15.1734 67.4313V68.7721C15.7027 68.7721 16.0203 68.5251 16.0203 68.1017C16.0203 67.6783 15.738 67.4313 15.1734 67.4313Z" fill="currentColor"/>
<path d="M17.114 68.9838C17.1493 69.0191 17.1846 69.0191 17.2199 69.0191C17.3258 69.0191 17.3963 68.9132 17.5022 68.7368L16.373 67.0078H16.7259L17.6433 68.4192L18.3138 67.0078H18.6313L17.7845 68.7721C17.6081 69.125 17.4669 69.3014 17.2199 69.3014C17.114 69.3014 17.0082 69.2308 16.9729 69.1955L17.114 68.9838Z" fill="currentColor"/>
<path d="M20.678 68.2781H19.3018V69.3014H19.0195V67.0078H19.3018V67.9958H20.678V67.0078H20.9603V69.3014H20.678V68.2781Z" fill="currentColor"/>
<path d="M21.6309 67.0078H21.9131V68.137L23.0776 67.0078H23.4657L22.3719 68.0664L23.5363 69.3367H23.1481L22.1601 68.2781L21.9131 68.5251V69.3367H21.6309V67.0078Z" fill="currentColor"/>
<path d="M23.9591 67.0078H24.2414V69.0191H25.5117V67.0078H25.794V69.0191H26.0763V69.7248H25.794V69.3014H23.9238V67.0078H23.9591Z" fill="currentColor"/>
<path d="M26.5703 69.3014V67.0078H26.8526V68.8074L28.264 67.0078H28.511V69.3014H28.2287V67.5018L26.8173 69.3014H26.5703Z" fill="currentColor"/>
<path d="M30.2406 66.9727C30.8757 66.9727 31.405 67.4667 31.405 68.1371C31.405 68.8075 30.8757 69.3015 30.2406 69.3015C29.6055 69.3015 29.0762 68.8075 29.0762 68.1371C29.0762 67.4667 29.5702 66.9727 30.2406 66.9727ZM30.2406 69.0545C30.7346 69.0545 31.0875 68.6664 31.0875 68.1724C31.0875 67.6431 30.6993 67.2902 30.2406 67.2902C29.7819 67.2902 29.3937 67.6431 29.3937 68.1724C29.3937 68.6664 29.7819 69.0545 30.2406 69.0545Z" fill="currentColor"/>
<path d="M33.592 68.2781H32.2159V69.3014H31.9336V67.0078H32.2159V67.9958H33.592V67.0078H33.8743V69.3014H33.592V68.2781Z" fill="currentColor"/>
<path d="M35.322 67.0078H35.569L36.5923 69.3014H36.2747L36.0277 68.7368H34.8986L34.6516 69.3014H34.334L35.322 67.0078ZM34.9691 68.4545H35.8866L35.4278 67.396L34.9691 68.4545Z" fill="currentColor"/>
<path d="M38.4617 67.2901H37.4737V67.4312C37.4737 69.0191 37.1561 69.3014 36.8033 69.3014C36.768 69.3014 36.6974 69.3014 36.6621 69.3014V69.0191C36.9091 69.0544 37.1561 68.9132 37.1561 67.396V67.0078H38.744V69.3014H38.4617V67.2901Z" fill="currentColor"/>
<path d="M39.6965 67.8547H40.2963C40.9315 67.8547 41.2138 68.1017 41.2138 68.5604C41.2138 69.0544 40.8609 69.3014 40.2611 69.3014H39.3789V67.0078H39.6612V67.8547H39.6965ZM39.6965 68.137V69.0191H40.2611C40.6845 69.0191 40.8962 68.878 40.8962 68.5604C40.8962 68.2781 40.6845 68.137 40.2611 68.137H39.6965Z" fill="currentColor"/>
<path d="M43.4026 68.2781H42.0264V69.3014H41.7441V67.0078H42.0264V67.9958H43.4026V67.0078H43.6849V69.3014H43.4026V68.2781Z" fill="currentColor"/>
<path d="M44.6379 67.8547H45.1319C45.767 67.8547 46.0493 68.137 46.0493 68.5604C46.0493 69.0544 45.6965 69.3014 45.0966 69.3014H44.3203V67.0078H44.6026V67.8547H44.6379ZM44.6379 68.137V69.0191H45.1319C45.5553 69.0191 45.767 68.878 45.767 68.5604C45.767 68.2781 45.5553 68.137 45.1319 68.137H44.6379ZM46.3669 67.0078H46.6492V69.3014H46.3669V67.0078Z" fill="currentColor"/>
<path d="M47.3184 69.3014V67.0078H47.6006V68.8074L49.0121 67.0078H49.2591V69.3014H48.9768V67.5018L47.5654 69.3014H47.3184ZM47.9535 66.3374C48.0241 66.4785 48.1299 66.5491 48.3064 66.5491C48.4475 66.5491 48.5886 66.4785 48.6239 66.3374H48.9062C48.8709 66.5844 48.6239 66.7961 48.3064 66.7961C47.9535 66.7961 47.7418 66.6197 47.6712 66.3374H47.9535Z" fill="currentColor"/>
<path d="M51.0586 67.0078H52.6817V67.2901H51.3409V69.3014H51.0586V67.0078Z" fill="currentColor"/>
<path d="M54.0238 66.9727C54.659 66.9727 55.1882 67.4667 55.1882 68.1371C55.1882 68.8075 54.659 69.3015 54.0238 69.3015C53.3887 69.3015 52.8594 68.8075 52.8594 68.1371C52.8594 67.4667 53.3534 66.9727 54.0238 66.9727ZM54.0238 69.0545C54.5178 69.0545 54.8707 68.6664 54.8707 68.1724C54.8707 67.6431 54.4825 67.2902 54.0238 67.2902C53.5651 67.2902 53.1769 67.6431 53.1769 68.1724C53.1769 68.6664 53.5651 69.0545 54.0238 69.0545Z" fill="currentColor"/>
<path d="M57.6932 68.9134C57.5168 69.1604 57.1639 69.3015 56.811 69.3015C56.07 69.3015 55.6113 68.8428 55.6113 68.1371C55.6113 67.4667 56.07 66.9727 56.7758 66.9727C57.1992 66.9727 57.5168 67.1491 57.6579 67.3608L57.4462 67.5372C57.2698 67.3608 57.058 67.2549 56.7758 67.2549C56.2465 67.2549 55.9289 67.6078 55.9289 68.1371C55.9289 68.6664 56.2818 69.0192 56.811 69.0192C57.1286 69.0192 57.3403 68.8781 57.5168 68.7017L57.6932 68.9134Z" fill="currentColor"/>
<path d="M57.9043 67.0078H59.8097V67.2901H58.9982V69.3014H58.7159V67.2901H57.9043V67.0078Z" fill="currentColor"/>
<path d="M60.2344 69.3014V67.0078H60.5167V68.8074L61.9281 67.0078H62.1751V69.3014H61.8928V67.5018L60.4814 69.3014H60.2344Z" fill="currentColor"/>
<path d="M64.5022 68.2781H63.126V69.3014H62.8438V67.0078H63.126V67.9958H64.5022V67.0078H64.7845V69.3014H64.5022V68.2781Z" fill="currentColor"/>
<path d="M65.4551 69.3014V67.0078H65.7374V68.8074L67.1488 67.0078H67.3958V69.3014H67.1135V67.5018L65.7021 69.3014H65.4551Z" fill="currentColor"/>
<path d="M69.8311 69.3014H69.5135V68.3134C69.3724 68.384 69.0901 68.4898 68.8431 68.4898C68.3491 68.4898 67.9609 68.2781 67.9609 67.7488V67.0078H68.2432V67.6077C68.2432 68.0311 68.4902 68.2428 68.8784 68.2428C69.0901 68.2428 69.3018 68.1722 69.4782 68.0664V67.0431H69.7605V69.3014H69.8311Z" fill="currentColor"/>
<path d="M72.1604 68.2781H70.7842V69.3014H70.502V67.0078H70.7842V67.9958H72.1604V67.0078H72.4427V69.3014H72.1604V68.2781Z" fill="currentColor"/>
<path d="M73.3957 67.8547H73.8897C74.5248 67.8547 74.8071 68.137 74.8071 68.5604C74.8071 69.0544 74.4543 69.3014 73.8544 69.3014H73.0781V67.0078H73.3604V67.8547H73.3957ZM73.3957 68.137V69.0191H73.8897C74.3131 69.0191 74.5248 68.878 74.5248 68.5604C74.5248 68.2781 74.3131 68.137 73.8897 68.137H73.3957ZM75.1247 67.0078H75.407V69.3014H75.1247V67.0078Z" fill="currentColor"/>
<path d="M76.041 69.3014V67.0078H76.3233V68.8074L77.7347 67.0078H77.9817V69.3014H77.6994V67.5018L76.288 69.3014H76.041ZM76.7114 66.3374C76.782 66.4785 76.8879 66.5491 77.0643 66.5491C77.2054 66.5491 77.3466 66.4785 77.3819 66.3374H77.6642C77.6289 66.5844 77.3819 66.7961 77.0643 66.7961C76.7114 66.7961 76.4997 66.6197 76.4292 66.3374H76.7114Z" fill="currentColor"/>
<path d="M79.8164 67.0078H80.0987V68.137L81.2631 67.0078H81.6513L80.5574 68.0664L81.7218 69.3367H81.3337L80.3457 68.2781L80.0987 68.5251V69.3367H79.8164V67.0078Z" fill="currentColor"/>
<path d="M83.0274 66.9727C83.6626 66.9727 84.1919 67.4667 84.1919 68.1371C84.1919 68.8075 83.6626 69.3015 83.0274 69.3015C82.3923 69.3015 81.863 68.8075 81.863 68.1371C81.8277 67.4667 82.357 66.9727 83.0274 66.9727ZM83.0274 69.0545C83.5214 69.0545 83.8743 68.6664 83.8743 68.1724C83.8743 67.6431 83.4861 67.2902 83.0274 67.2902C82.5687 67.2902 82.1806 67.6431 82.1806 68.1724C82.1453 68.6664 82.5334 69.0545 83.0274 69.0545Z" fill="currentColor"/>
<path d="M84.7227 67.0078H85.0049L85.8871 68.1722L86.7339 67.0078H87.0162V69.3014H86.7339V67.5018L85.9577 68.5604H85.8871L85.0755 67.5018V69.3014H84.7932V67.0078H84.7227Z" fill="currentColor"/>
<path d="M89.2735 67.2901H87.9327V69.3014H87.6504V67.0078H89.5911V69.3014H89.2735V67.2901Z" fill="currentColor"/>
<path d="M91.7429 67.2901H90.7549V67.4312C90.7549 69.0191 90.4374 69.3014 90.0845 69.3014C90.0492 69.3014 89.9786 69.3014 89.9434 69.3014V69.0191C90.1904 69.0544 90.4374 68.9132 90.4374 67.396V67.0078H92.0252V69.3014H91.7429V67.2901Z" fill="currentColor"/>
<path d="M92.6973 67.0078H94.3557V67.2901H93.0148V67.9958H94.2851V68.2781H93.0148V69.0191H94.391V69.3014H92.6973V67.0078Z" fill="currentColor"/>
<path d="M94.9551 67.0078H95.2374V68.137L96.4018 67.0078H96.7899L95.6961 68.0664L96.8605 69.3367H96.4724L95.4844 68.2781L95.2374 68.5251V69.3367H94.9551V67.0078Z" fill="currentColor"/>
<path d="M99.119 68.9134C98.9425 69.1604 98.5897 69.3015 98.2368 69.3015C97.4958 69.3015 97.0371 68.8428 97.0371 68.1371C97.0371 67.4667 97.4958 66.9727 98.2015 66.9727C98.625 66.9727 98.9425 67.1491 99.0837 67.3608L98.872 67.5372C98.6955 67.3608 98.4838 67.2549 98.2015 67.2549C97.6722 67.2549 97.3547 67.6078 97.3547 68.1371C97.3547 68.6664 97.7075 69.0192 98.2368 69.0192C98.5544 69.0192 98.7661 68.8781 98.9425 68.7017L99.119 68.9134Z" fill="currentColor"/>
<path d="M97.0017 16.2315V12.6676H97.7427V11.5385H97.0017C97.0017 11.5385 97.0017 11.5032 97.0017 11.4326C97.0017 11.3973 97.0017 11.3267 96.9664 11.2915C96.8958 10.621 96.6488 9.98589 96.2607 9.4566C95.9078 8.9626 95.4138 8.60974 94.8492 8.36274C94.8139 8.32745 94.7786 8.32745 94.7081 8.32745C94.6728 8.29217 94.6375 8.29217 94.5669 8.29217V7.62174H94.1082V7.12773H93.7554V6.66902C93.8259 6.56316 93.8612 6.4573 93.8612 6.35145C93.8612 6.2103 93.7906 6.06916 93.6848 5.9633L93.3672 2.92872L93.0496 5.9633C92.9438 6.06916 92.8732 6.2103 92.8732 6.35145C92.8732 6.4573 92.9085 6.59845 92.9791 6.66902V7.12773H92.6262V7.62174H53.1767C52.718 7.30416 52.224 7.09245 51.6947 6.95131V5.99859H50.9889V5.29287H50.4597V4.37544C50.5655 4.26958 50.6361 4.09315 50.6361 3.95201C50.6361 3.7403 50.5302 3.56387 50.3538 3.42272L49.9657 0L49.5775 3.42272C49.4011 3.52858 49.2952 3.7403 49.2952 3.95201C49.2952 4.12844 49.3658 4.26958 49.4717 4.37544V5.2223H48.9424V5.92802H48.2367V6.88073C47.7074 7.02188 47.2134 7.26888 46.7547 7.55117H7.26982V7.05716H6.91697V6.59845C6.98754 6.49259 7.02282 6.38673 7.02282 6.28088C7.02282 6.13973 6.95225 5.99859 6.84639 5.89273L6.52882 2.85815L6.21125 5.89273C6.10539 5.99859 6.03482 6.13973 6.03482 6.28088C6.03482 6.38673 6.07011 6.52788 6.14068 6.59845V7.05716H5.78782V7.55117H5.3291V8.25688C5.29382 8.25688 5.25853 8.29217 5.22325 8.29217C4.51753 8.53917 3.91767 9.03317 3.49424 9.66831C3.49424 9.66831 3.49424 9.66831 3.49424 9.7036C3.17667 10.1623 3.00024 10.7269 2.96495 11.3267C2.96495 11.362 2.96495 11.4326 2.96495 11.4679C2.96495 11.5385 2.96495 11.5737 2.96495 11.5737H2.25924V12.7029H3.00024V16.2668H1.87109V17.4312H3.03553V27.9817V28.4404V33.5921V34.0508V37.9675V39.6965V46.6126H10.128H89.8739H96.5077V47.0713H3.49424V46.6126H3.03553V47.0713V47.53H96.9664V47.0713V46.6126V45.307V41.2844V39.6965V39.2378V34.0508V33.5921V28.4404V27.9817V17.4312H98.1308V16.2315H97.0017ZM97.2487 11.9972V12.2089H89.5563V11.9972H97.2487ZM96.5429 12.6676V16.2315H90.2973V12.6676H96.5429ZM45.5549 13.1263V16.1962H45.0962V13.1263H44.6375V16.1962H42.3086V12.6676H43.8612V13.1616H54.3411H54.0235V16.2315H45.9784V13.1616H45.5549V13.1263ZM10.128 16.2315V12.6676H11.9981V16.2315H10.128ZM12.5274 12.6676H17.9261V16.2315H12.5274V12.6676ZM18.4907 12.6676H23.8894V16.2315H18.4907V12.6676ZM24.454 12.6676H29.8527V16.2315H24.454V12.6676ZM30.4173 12.6676H35.816V16.2315H30.4173V12.6676ZM36.3806 12.6676H41.7794V16.2315H36.3806V12.6676ZM49.0482 7.86874C49.2952 7.58645 49.6128 7.41002 50.0362 7.41002C50.4597 7.44531 50.7772 7.58645 51.0242 7.86874C51.5535 8.4686 51.6241 9.52717 51.6241 10.1623C51.483 10.0212 51.4477 9.84474 51.4477 9.63303H50.9537C50.8831 9.56246 50.7772 9.49189 50.6714 9.4566C50.7419 9.35074 50.8125 9.2096 50.8125 9.03317C50.8125 8.60974 50.4949 8.29217 50.0715 8.29217C49.6481 8.29217 49.3305 8.60974 49.3305 9.03317C49.3305 9.17431 49.3658 9.35074 49.4717 9.4566C49.3658 9.49189 49.2952 9.56246 49.1894 9.63303H48.6954C48.6954 9.84474 48.6248 9.98589 48.4837 10.0917C48.4484 9.49189 48.5189 8.4686 49.0482 7.86874ZM50.0009 9.28017C49.8598 9.28017 49.7539 9.17431 49.7539 9.03317C49.7539 8.89203 49.8598 8.78617 50.0009 8.78617C50.1421 8.78617 50.2479 8.89203 50.2479 9.03317C50.2479 9.17431 50.1421 9.28017 50.0009 9.28017ZM50.0009 9.84474C50.4597 9.84474 50.8125 10.1976 50.8125 10.6563C50.8125 11.115 50.4597 11.4679 50.0009 11.4679C49.5422 11.4679 49.1894 11.115 49.1894 10.6563C49.1894 10.1976 49.5775 9.84474 50.0009 9.84474ZM50.9537 11.609C51.2007 11.362 51.3771 11.0092 51.3771 10.6563C51.5182 10.7975 51.73 10.9033 51.8711 10.9739C52.224 11.1856 52.471 11.3267 52.5415 11.609H50.9537ZM48.2014 10.9033C48.3425 10.7975 48.5189 10.6916 48.6601 10.5857C48.6601 10.621 48.6601 10.621 48.6601 10.6563C48.6601 11.0445 48.8365 11.3973 49.0835 11.609H47.4957C47.5662 11.3267 47.8485 11.1503 48.2014 10.9033ZM55.682 12.1736V12.7029H54.9057H44.3199V12.1736V12.1383H55.682V12.1736ZM54.447 13.1263H54.9057V16.1962H54.447V13.1263ZM55.3644 13.1263H56.1054V12.9499V12.6676V12.6323H57.6933V16.1962H55.3644V13.1263ZM58.2578 12.6676H63.6566V16.2315H58.2578V12.6676ZM64.2211 12.6676H69.6199V16.2315H64.2211V12.6676ZM70.1844 12.6676H75.5832V16.2315H70.1844V12.6676ZM76.1124 12.6676H81.5112V16.2315H76.1124V12.6676ZM82.0758 12.6676H87.5098V16.2315H82.111V12.6676H82.0758ZM88.0391 12.6676H89.8033V16.2315H88.0391V12.6676ZM90.2973 11.362C90.2973 11.3267 90.2973 11.3267 90.2973 11.2915C90.2973 11.2562 90.2973 11.1856 90.3326 11.115C90.3326 11.0092 90.3679 10.9033 90.4032 10.7975C90.4385 10.6916 90.4738 10.5505 90.5091 10.4093C90.6855 9.91531 91.0031 9.38603 91.6029 9.03317C91.7441 8.92731 91.9205 8.85674 92.0969 8.78617C91.2148 9.63303 90.9678 11.0797 90.9325 11.5032H90.2973C90.2973 11.5032 90.2973 11.4326 90.2973 11.362ZM93.3672 9.91532C93.2966 9.91532 93.2261 9.84474 93.2261 9.77417C93.2261 9.7036 93.2966 9.63303 93.3672 9.63303C93.4378 9.63303 93.5084 9.7036 93.5084 9.77417C93.5084 9.84474 93.4731 9.91532 93.3672 9.91532ZM93.3672 10.374C93.6495 10.374 93.8965 10.621 93.8965 10.9033C93.8965 11.1856 93.6495 11.4326 93.3672 11.4326C93.0849 11.4326 92.8379 11.1856 92.8379 10.9033C92.8379 10.621 93.0849 10.374 93.3672 10.374ZM94.3199 10.9386C94.4258 11.0092 94.5317 11.0797 94.6375 11.1503C94.8492 11.2562 94.9904 11.362 95.0609 11.5032H94.0729C94.2141 11.362 94.3199 11.1503 94.3199 10.9386ZM92.6615 11.5032H91.6735C91.7441 11.362 91.9205 11.2209 92.1322 11.0797C92.2381 11.0092 92.3439 10.9386 92.4145 10.868C92.4145 11.1503 92.5204 11.362 92.6615 11.5032ZM94.8492 10.7975C94.5316 10.621 94.3552 10.4799 94.3552 10.1623H94.0024C93.9318 10.127 93.8965 10.0917 93.8259 10.0565C93.8965 9.98589 93.9318 9.88003 93.9318 9.77417C93.9318 9.49188 93.6848 9.24488 93.4025 9.24488C93.1202 9.24488 92.8732 9.49188 92.8732 9.77417C92.8732 9.88003 92.9085 9.98589 92.9791 10.0565C92.9085 10.0917 92.8732 10.127 92.8026 10.1623H92.4498C92.4498 10.4093 92.2734 10.5505 91.9558 10.7269C91.7441 10.868 91.5324 11.0092 91.3912 11.2209C91.5324 10.4093 91.9911 8.75088 93.4378 8.57445C94.8845 8.75088 95.3432 10.4446 95.4844 11.2562C95.2727 11.0445 95.0609 10.9033 94.8492 10.7975ZM94.6728 8.75088C94.8845 8.82146 95.0609 8.92731 95.2374 9.03317C95.6608 9.31546 95.9431 9.66831 96.1548 10.0565C96.1901 10.127 96.2254 10.1976 96.2607 10.2682C96.4018 10.5857 96.5077 10.9033 96.5077 11.2562C96.5077 11.2915 96.5077 11.2915 96.5077 11.3267C96.5077 11.3973 96.5077 11.5032 96.5077 11.5032H95.8372C95.8019 11.0797 95.5549 9.59774 94.6728 8.75088ZM93.4025 6.28088C93.4378 6.28088 93.4378 6.31616 93.4378 6.31616C93.4378 6.35145 93.4025 6.35145 93.4025 6.35145C93.3672 6.35145 93.3672 6.31616 93.3672 6.31616C93.3672 6.28088 93.4025 6.28088 93.4025 6.28088ZM93.1202 7.37474H93.6495V7.58645H93.1202V7.37474ZM94.1435 7.86874V8.08045H92.6615V7.86874H94.1435ZM92.2028 8.04517V8.25688C92.1322 8.29217 92.0616 8.29217 91.9911 8.32745C91.9558 8.32745 91.8852 8.36274 91.8499 8.39803C91.7441 8.43331 91.6382 8.50388 91.5323 8.57445C91.4265 8.64503 91.2501 8.75088 91.1442 8.82145C90.9325 8.9626 90.7561 9.17431 90.5796 9.35074C90.5796 9.35074 90.5796 9.38603 90.5443 9.38603C90.1209 9.91532 89.8386 10.621 89.8033 11.3267C89.8033 11.362 89.8033 11.362 89.8033 11.3973C89.8033 11.4326 89.8033 11.4326 89.8033 11.4679C89.8033 11.5385 89.8033 11.5385 89.8033 11.5385H89.0623V12.2089H88.0038L85.322 8.04517H92.2028ZM84.828 8.04517L87.5098 12.2089H82.111L79.394 8.04517H84.828ZM78.8647 8.04517L81.5465 12.2089H76.1477L73.466 8.04517H78.8647ZM72.9014 8.04517L75.5832 12.2089H70.1844L67.5027 8.04517H72.9014ZM66.9381 8.04517L69.6199 12.2089H64.2211L61.5394 8.04517H66.9381ZM60.9748 8.04517L63.6566 12.2089H58.2578L55.5761 8.04517H60.9748ZM55.0115 8.04517L57.6933 12.2089H56.1054V11.7149H55.3644C55.3644 10.3035 54.7645 8.99788 53.7412 8.04517H55.0115ZM53.0002 8.00988C54.2 8.85674 54.941 10.2329 54.941 11.7149H53.953C53.953 11.0092 53.8471 8.9626 52.5415 7.69231C52.6827 7.79817 52.8238 7.86874 53.0002 8.00988ZM51.5182 7.55117C51.6241 7.62174 51.6947 7.65702 51.8005 7.72759C51.8358 7.72759 51.8358 7.76288 51.8711 7.76288C51.977 7.83345 52.0475 7.90402 52.1534 7.9746C52.3298 8.11574 52.471 8.29217 52.6121 8.4686C53.4237 9.59774 53.4942 11.115 53.4942 11.6796H53.1061C53.0355 11.0445 52.5415 10.7622 52.1534 10.5152C52.1181 10.4799 52.0828 10.4799 52.0475 10.4446C52.0828 9.91532 52.1181 8.43331 51.3771 7.55117C51.3065 7.48059 51.2359 7.41002 51.1654 7.33945C51.2007 7.33945 51.2007 7.33945 51.2007 7.33945C51.3065 7.37474 51.4124 7.41002 51.5182 7.48059C51.4829 7.55116 51.5182 7.55117 51.5182 7.55117ZM50.0009 3.77558C50.1068 3.77558 50.1774 3.84615 50.1774 3.95201C50.1774 4.05787 50.1068 4.12844 50.0009 4.12844C49.8951 4.12844 49.8245 4.05787 49.8245 3.95201C49.8245 3.84615 49.9304 3.77558 50.0009 3.77558ZM49.4717 5.68102H50.5655V5.92802H49.4717V5.68102ZM48.7659 6.38673H51.2712V6.7043H48.7659V6.38673ZM48.8365 7.41002H48.8718C48.8012 7.48059 48.7307 7.55117 48.6601 7.62174C47.9544 8.4686 47.9544 9.88003 47.9897 10.4446C47.9544 10.4446 47.9544 10.4799 47.9191 10.4799C47.4957 10.7269 47.0017 11.0445 46.9311 11.7149H46.5782C46.5782 11.0797 46.6841 9.28017 47.7427 8.15102C48.0249 7.79817 48.4131 7.55116 48.8365 7.41002ZM47.0369 8.00988C47.1781 7.90402 47.3545 7.79817 47.4957 7.72759C47.4604 7.76288 47.4251 7.79817 47.3898 7.86874C46.1901 9.13903 46.0842 11.0797 46.0842 11.7502H45.0962C45.1315 10.2329 45.8372 8.85674 47.0369 8.00988ZM46.2607 8.04517C45.2374 8.99788 44.6728 10.3387 44.6375 11.7149H43.8612V12.2089H42.3439L45.0256 8.04517H46.2607ZM44.4611 8.04517L41.7794 12.2089H36.3806L39.0623 8.04517H44.4611ZM38.4978 8.04517L35.816 12.2089H30.4173L33.099 8.04517H38.4978ZM32.5345 8.04517L29.8527 12.2089H24.454L27.1357 8.04517H32.5345ZM26.5712 8.04517L23.8894 12.2089H18.4907L21.1724 8.04517H26.5712ZM20.6431 8.04517L17.9614 12.2089H12.5274L15.2091 8.04517H20.6431ZM7.72854 8.04517H14.6446L11.9981 12.2089H10.869V11.5385H10.128C10.128 11.5385 10.128 11.5032 10.128 11.4679C10.128 11.4326 10.128 11.3973 10.128 11.3267C10.0574 10.7269 9.88097 10.1623 9.5634 9.66831C9.52812 9.63303 9.52812 9.56246 9.49283 9.52717C9.3164 9.28017 9.10469 9.03317 8.8224 8.82145C8.71654 8.75088 8.54011 8.60974 8.43425 8.53917C8.25783 8.43331 8.0814 8.36274 7.90497 8.29217H7.86968C7.8344 8.25688 7.76382 8.25688 7.72854 8.25688V8.04517ZM6.56411 8.57445C7.97554 8.75088 8.43426 10.3387 8.5754 11.1503C8.43426 10.9386 8.22254 10.8327 8.04611 10.7269C7.72854 10.5505 7.55211 10.4093 7.55211 10.0917H7.16397C7.12868 10.0565 7.05811 10.0212 6.98754 9.98589C7.05811 9.91532 7.09339 9.80946 7.09339 9.66831C7.09339 9.38603 6.84639 9.13903 6.56411 9.13903C6.28182 9.13903 5.99953 9.38603 5.99953 9.7036C5.99953 9.80946 6.03482 9.91532 6.10539 9.98589C6.03482 10.0212 5.99953 10.0565 5.92896 10.0917H5.5761C5.5761 10.3387 5.39968 10.4799 5.0821 10.6563C4.90567 10.7622 4.65867 10.9033 4.51753 11.115C4.69396 10.3035 5.15267 8.75088 6.56411 8.57445ZM6.56411 9.84474C6.49354 9.84474 6.42296 9.77417 6.42296 9.7036C6.42296 9.63303 6.49354 9.56246 6.56411 9.56246C6.63468 9.56246 6.70525 9.63303 6.70525 9.7036C6.70525 9.77417 6.63468 9.84474 6.56411 9.84474ZM6.56411 10.3035C6.84639 10.3035 7.09339 10.5505 7.09339 10.8327C7.09339 11.115 6.84639 11.362 6.56411 11.362C6.28182 11.362 6.03482 11.115 6.03482 10.8327C6.03482 10.5505 6.24653 10.3035 6.56411 10.3035ZM7.48154 10.868C7.5874 10.9386 7.69325 11.0092 7.79911 11.0797C8.01083 11.2209 8.18725 11.3267 8.25783 11.4679H7.19925C7.37568 11.3267 7.48154 11.115 7.48154 10.868ZM5.85839 11.4679H4.79982C4.87039 11.2915 5.04682 11.1856 5.29382 11.0092C5.39968 10.9386 5.50553 10.868 5.5761 10.7975C5.61139 11.0797 5.71725 11.3267 5.85839 11.4679ZM9.03411 11.5032C8.99883 11.0797 8.75183 9.59774 7.86968 8.75088C8.15197 8.85674 8.39897 8.99788 8.5754 9.13903C9.0694 9.52717 9.35169 10.0212 9.49283 10.4446C9.52812 10.5152 9.52812 10.5857 9.5634 10.621C9.59869 10.7975 9.63397 10.9739 9.66926 11.1503C9.66926 11.1856 9.66926 11.2209 9.66926 11.2562C9.66926 11.2915 9.66926 11.2915 9.66926 11.3267C9.66926 11.3973 9.66926 11.5032 9.66926 11.5032H9.03411ZM6.56411 6.28088C6.59939 6.28088 6.59939 6.31616 6.59939 6.31616C6.59939 6.35145 6.59939 6.35145 6.56411 6.35145C6.52882 6.35145 6.52882 6.31616 6.52882 6.31616C6.52882 6.28088 6.52882 6.28088 6.56411 6.28088ZM6.28182 7.33945H6.81111V7.58645H6.28182V7.33945ZM5.82311 7.83345H7.30511V8.08045H5.82311V7.83345ZM3.45896 11.2915C3.45896 11.2562 3.45896 11.2209 3.45896 11.1503C3.45896 11.0445 3.49424 10.9386 3.52953 10.7975C3.67067 10.2682 3.95296 9.52717 4.69396 9.03317C4.87039 8.92731 5.04682 8.82146 5.29382 8.75088C4.37639 9.59774 4.16467 11.0797 4.0941 11.5032H3.42367C3.42367 11.5032 3.42367 11.3973 3.45896 11.2915ZM2.71795 12.2089V11.9972H10.4103V12.2089H2.71795ZM9.66926 12.6676V16.2315H3.42367V12.6676H9.66926ZM5.29382 46.1891V40.5787H7.94025V46.1891H5.29382ZM8.36368 46.1891V40.0847H4.8351V46.1891H3.49424V39.7318V38.0028V34.0861V33.6274V28.4404V27.9817V22.8299H9.63397V27.8405V28.0169V28.4757V28.6521V33.4862V33.6274V34.0861V34.2978V39.132V39.2731V39.7318V39.9083V46.1891H9.66926H8.36368ZM90.3679 17.4312H96.5429V22.3712H90.3679V17.4312ZM89.8386 22.3712H54.9762V17.4312H89.8386V22.3712ZM47.2134 46.1538V40.5434H52.8238V40.0847H47.2134V37.7205C47.2134 37.6853 47.2134 37.6853 47.2134 37.65H52.8238C52.8238 37.6853 52.8238 37.6853 52.8238 37.7205V46.1538H47.2134ZM47.2486 37.1913C47.4957 35.8857 48.6248 34.8977 50.0009 34.8977C50.7772 34.8977 51.483 35.2152 51.977 35.7093C52.3651 36.0974 52.6474 36.5914 52.7532 37.156H47.2486V37.1913ZM52.3298 35.427C51.73 34.8271 50.9184 34.4742 50.0009 34.4742C48.2014 34.4742 46.7194 35.9562 46.7194 37.7558V46.1891H45.5902V34.2978V34.1214V33.6627V33.5215V28.6521V28.4757V28.0169V27.8405V22.8299H54.4117V27.8405V28.0169V28.4757V28.6521V33.4862V33.6274V34.0861V34.2625V46.1538H53.2825V37.7205C53.2825 36.8384 52.9297 35.9915 52.3298 35.427ZM39.5563 46.1538V40.5434H42.6968V46.1538H39.5563ZM39.0976 46.1538H38.2861V40.5434H39.0976V46.1538ZM43.1555 46.1538V40.5434H43.8965V46.1538H43.1555ZM37.7921 40.0847V46.1538H35.3926V40.0847H28.8647V46.1538H26.4653V40.0847H19.9374V46.1538H17.6086V40.0847H11.0454V46.1538H10.1633V39.873V39.6965V39.2378V39.0967V34.2625V34.0861V33.6274V33.4862V28.6521V28.4757V28.0169V27.8758V22.8299H45.0609V27.8405V27.9817V28.4404V28.6168V33.451V33.5921V34.0508V34.2272V39.0614V39.2025V39.6613V39.8377V46.1186H44.3552V40.0494H37.7921V40.0847ZM30.5937 46.1538V40.5434H33.7342V46.1538H30.5937ZM30.0997 46.1538H29.3235V40.5434H30.0997V46.1538ZM34.1929 46.1538V40.5434H34.9339V46.1538H34.1929ZM21.6312 46.1538V40.5434H24.7716V46.1538H21.6312ZM21.1724 46.1538H20.3961V40.5434H21.1724V46.1538ZM25.2303 46.1538V40.5434H26.0066V46.1538H25.2303ZM12.7391 46.1538V40.5434H15.8796V46.1538H12.7391ZM12.2804 46.1538H11.5041V40.5434H12.2804V46.1538ZM16.3736 46.1538V40.5434H17.1499V46.1538H16.3736ZM54.4117 22.3712H45.5902V17.4312H54.4117V22.3712ZM45.0609 22.3712H10.1633V17.4312H45.0609V22.3712ZM9.63397 22.3712H3.49424V17.4312H9.63397V22.3712ZM61.857 46.1538H61.0454V40.5434H61.857V46.1538ZM60.5514 40.5434V46.1538H57.411V40.5434H60.5514ZM56.9522 46.1538H56.2112V40.5434H56.9522V46.1538ZM70.7137 46.1538H69.9021V40.5434H70.7137V46.1538ZM69.4434 46.1538H66.303V40.5434H69.4434V46.1538ZM65.8443 46.1538H65.1033V40.5434H65.8443V46.1538ZM79.6763 46.1538H78.8647V40.5434H79.6763V46.1538ZM78.3707 46.1538H75.2303V40.5434H78.3707V46.1538ZM74.7716 46.1538H74.0306V40.5434H74.7716V46.1538ZM88.6036 46.1538H87.8273V40.5434H88.6036V46.1538ZM87.3333 46.1538H84.1929V40.5434H87.3333V46.1538ZM83.7342 46.1538H82.9579V40.5434H83.7342V46.1538ZM89.0623 46.1538V40.0847H82.4992V46.1538H80.0997V40.0847H73.5366V46.1538H71.1372V40.0847H64.574V46.1538H62.2451V40.0847H55.7525V46.1538H54.941V39.873V39.6965V39.2378V39.0614V34.2272V34.0508V33.5921V33.4157V28.6168V28.4404V27.9817V27.8052V22.8299H89.8033V27.9817V28.4404V33.5921V34.0508V39.2025V39.6613V46.1186H89.0623V46.1538ZM94.6728 46.1538H92.0263V40.5434H94.6728V46.1538ZM96.5077 28.4404V33.5921V34.0508V39.2378V39.6965V41.2844V45.307V46.1186H95.0962V40.0494H91.5323V46.1186H90.3326V45.307V41.2844V39.6965V39.2378V34.0508V33.5921V28.4404V27.9817V22.8299H96.5077V27.9817V28.4404ZM97.7074 16.9725H2.32981V16.6902H97.7074V16.9725Z" fill="currentColor"/>
<path d="M8.32754 12.9851H4.76367V15.9138H8.36283V12.9851H8.32754ZM7.86882 15.4198H5.22239V13.4085H7.86882V15.4198Z" fill="currentColor"/>
<path d="M95.2027 12.9851H91.6035V15.9138H95.2027V12.9851ZM94.744 15.4198H92.0975V13.4085H94.744V15.4198Z" fill="currentColor"/>
<path d="M48.3065 18.6662C48.3065 18.1369 47.9889 17.7488 47.5302 17.7488C47.0715 17.7488 46.7539 18.1369 46.7539 18.6662V21.7714H48.3418V18.6662H48.3065ZM47.8478 21.3126H47.1773V18.6662C47.1773 18.4192 47.3185 18.2428 47.4949 18.2428C47.7066 18.2428 47.8125 18.4192 47.8125 18.6662V21.3126H47.8478Z" fill="currentColor"/>
<path d="M50.8475 18.6662C50.8475 18.1369 50.5299 17.7488 50.0712 17.7488C49.6125 17.7488 49.2949 18.1369 49.2949 18.6662V21.7714H50.8828V18.6662H50.8475ZM50.3888 21.3126H49.7536V18.6662C49.7536 18.4192 49.8948 18.2428 50.0712 18.2428C50.2476 18.2428 50.3888 18.4192 50.3888 18.6662V21.3126Z" fill="currentColor"/>
<path d="M53.283 18.6662C53.283 18.1369 52.9655 17.7488 52.5068 17.7488C52.048 17.7488 51.7305 18.1369 51.7305 18.6662V21.7714H53.3183V18.6662H53.283ZM52.8243 21.3126H52.1539V18.6662C52.1539 18.4192 52.295 18.2428 52.4715 18.2428C52.6479 18.2428 52.789 18.4192 52.789 18.6662V21.3126H52.8243Z" fill="currentColor"/>
<path d="M39.3807 18.6662C39.3807 18.1369 39.0631 17.7488 38.6044 17.7488C38.1457 17.7488 37.8281 18.1369 37.8281 18.6662V21.7714H39.416V18.6662H39.3807ZM38.922 21.3126H38.2516V18.6662C38.2516 18.4192 38.3927 18.2428 38.5691 18.2428C38.7456 18.2428 38.8867 18.4192 38.8867 18.6662V21.3126H38.922Z" fill="currentColor"/>
<path d="M41.9198 18.6662C41.9198 18.1369 41.6022 17.7488 41.1435 17.7488C40.6848 17.7488 40.3672 18.1369 40.3672 18.6662V21.7714H41.955V18.6662H41.9198ZM41.461 21.3126H40.7906V18.6662C40.7906 18.4192 40.9318 18.2428 41.1082 18.2428C41.2846 18.2428 41.4258 18.4192 41.4258 18.6662V21.3126H41.461Z" fill="currentColor"/>
<path d="M44.3553 18.6662C44.3553 18.1369 44.0377 17.7488 43.579 17.7488C43.1203 17.7488 42.8027 18.1369 42.8027 18.6662V21.7714H44.3906V18.6662H44.3553ZM43.8966 21.3126H43.2262V18.6662C43.2262 18.4192 43.3673 18.2428 43.5437 18.2428C43.7202 18.2428 43.8613 18.4192 43.8613 18.6662V21.3126H43.8966Z" fill="currentColor"/>
<path d="M30.4531 18.6662C30.4531 18.1369 30.1355 17.7488 29.6768 17.7488C29.2181 17.7488 28.8652 18.1369 28.8652 18.6662V21.7714H30.4531V18.6662ZM29.9944 21.3126H29.3239V18.6662C29.3239 18.4192 29.4651 18.2428 29.6415 18.2428C29.818 18.2428 29.9591 18.4192 29.9591 18.6662V21.3126H29.9944Z" fill="currentColor"/>
<path d="M32.994 18.6662C32.994 18.1369 32.6764 17.7488 32.2177 17.7488C31.759 17.7488 31.4414 18.1369 31.4414 18.6662V21.7714H33.0293V18.6662H32.994ZM32.5353 21.3126H31.8648V18.6662C31.8648 18.4192 32.006 18.2428 32.1824 18.2428C32.3941 18.2428 32.5 18.4192 32.5 18.6662V21.3126H32.5353Z" fill="currentColor"/>
<path d="M35.4276 18.6662C35.4276 18.1369 35.11 17.7488 34.6513 17.7488C34.1926 17.7488 33.875 18.1369 33.875 18.6662V21.7714H35.4629V18.6662H35.4276ZM34.9689 21.3126H34.2984V18.6662C34.2984 18.4192 34.4396 18.2428 34.616 18.2428C34.7924 18.2428 34.9336 18.4192 34.9336 18.6662V21.3126H34.9689Z" fill="currentColor"/>
<path d="M21.4901 18.6662C21.4901 18.1369 21.1725 17.7488 20.7138 17.7488C20.2551 17.7488 19.9375 18.1369 19.9375 18.6662V21.7714H21.5254V18.6662H21.4901ZM21.0314 21.3126H20.3609V18.6662C20.3609 18.4192 20.5021 18.2428 20.6785 18.2428C20.8549 18.2428 20.9961 18.4192 20.9961 18.6662V21.3126H21.0314Z" fill="currentColor"/>
<path d="M24.0311 18.6662C24.0311 18.1369 23.7135 17.7488 23.2548 17.7488C22.7961 17.7488 22.4785 18.1369 22.4785 18.6662V21.7714H24.0664V18.6662H24.0311ZM23.5724 21.3126H22.9372V18.6662C22.9372 18.4192 23.0784 18.2428 23.2548 18.2428C23.4312 18.2428 23.5724 18.4192 23.5724 18.6662V21.3126Z" fill="currentColor"/>
<path d="M26.4647 18.6662C26.4647 18.1369 26.1471 17.7488 25.6884 17.7488C25.2297 17.7488 24.9121 18.1369 24.9121 18.6662V21.7714H26.4647V18.6662ZM26.006 21.3126H25.3355V18.6662C25.3355 18.4192 25.4767 18.2428 25.6531 18.2428C25.8295 18.2428 25.9707 18.4192 25.9707 18.6662V21.3126H26.006Z" fill="currentColor"/>
<path d="M12.6327 18.6662C12.6327 18.1369 12.3151 17.7488 11.8564 17.7488C11.3977 17.7488 11.0801 18.1369 11.0801 18.6662V21.7714H12.6679V18.6662H12.6327ZM12.1739 21.3126H11.5035V18.6662C11.5035 18.4192 11.6447 18.2428 11.8211 18.2428C11.9975 18.2428 12.1387 18.4192 12.1387 18.6662V21.3126H12.1739Z" fill="currentColor"/>
<path d="M15.1737 18.6662C15.1737 18.1369 14.8561 17.7488 14.3974 17.7488C13.9387 17.7488 13.6211 18.1369 13.6211 18.6662V21.7714H15.1737V18.6662ZM14.715 21.3126H14.0445V18.6662C14.0445 18.4192 14.1857 18.2428 14.3621 18.2428C14.5385 18.2428 14.6797 18.4192 14.6797 18.6662V21.3126H14.715Z" fill="currentColor"/>
<path d="M17.6092 18.6662C17.6092 18.1369 17.2916 17.7488 16.8329 17.7488C16.3742 17.7488 16.0566 18.1369 16.0566 18.6662V21.7714H17.6445V18.6662H17.6092ZM17.1152 21.3126H16.4448V18.6662C16.4448 18.4192 16.5859 18.2428 16.7624 18.2428C16.9388 18.2428 17.0799 18.4192 17.0799 18.6662V21.3126H17.1152Z" fill="currentColor"/>
<path d="M57.2342 18.6662C57.2342 18.1369 56.9166 17.7488 56.4579 17.7488C55.9992 17.7488 55.6816 18.1369 55.6816 18.6662V21.7714H57.2695V18.6662H57.2342ZM56.7755 21.3126H56.1051V18.6662C56.1051 18.4192 56.2462 18.2428 56.4226 18.2428C56.5991 18.2428 56.7402 18.4192 56.7402 18.6662V21.3126H56.7755Z" fill="currentColor"/>
<path d="M59.7752 18.6662C59.7752 18.1369 59.4577 17.7488 58.9989 17.7488C58.5402 17.7488 58.2227 18.1369 58.2227 18.6662V21.7714H59.8105V18.6662H59.7752ZM59.3165 21.3126H58.6461V18.6662C58.6461 18.4192 58.7872 18.2428 58.9637 18.2428C59.1401 18.2428 59.2812 18.4192 59.2812 18.6662V21.3126H59.3165Z" fill="currentColor"/>
<path d="M62.2108 18.6662C62.2108 18.1369 61.8932 17.7488 61.4345 17.7488C60.9758 17.7488 60.6582 18.1369 60.6582 18.6662V21.7714H62.2461V18.6662H62.2108ZM61.7521 21.3126H61.0816V18.6662C61.0816 18.4192 61.2228 18.2428 61.3992 18.2428C61.6109 18.2428 61.7168 18.4192 61.7168 18.6662V21.3126H61.7521Z" fill="currentColor"/>
<path d="M66.1971 18.6662C66.1971 18.1369 65.8795 17.7488 65.4208 17.7488C64.9621 17.7488 64.6445 18.1369 64.6445 18.6662V21.7714H66.2324V18.6662H66.1971ZM65.7384 21.3126H65.068V18.6662C65.068 18.4192 65.2091 18.2428 65.3855 18.2428C65.5973 18.2428 65.7031 18.4192 65.7031 18.6662V21.3126H65.7384Z" fill="currentColor"/>
<path d="M68.7381 18.6662C68.7381 18.1369 68.4206 17.7488 67.9618 17.7488C67.5031 17.7488 67.1855 18.1369 67.1855 18.6662V21.7714H68.7734V18.6662H68.7381ZM68.2794 21.3126H67.609V18.6662C67.609 18.4192 67.7501 18.2428 67.9266 18.2428C68.103 18.2428 68.2441 18.4192 68.2441 18.6662V21.3126H68.2794Z" fill="currentColor"/>
<path d="M71.1717 18.6662C71.1717 18.1369 70.8541 17.7488 70.3954 17.7488C69.9367 17.7488 69.6191 18.1369 69.6191 18.6662V21.7714H71.207V18.6662H71.1717ZM70.713 21.3126H70.0426V18.6662C70.0426 18.4192 70.1837 18.2428 70.3601 18.2428C70.5366 18.2428 70.6777 18.4192 70.6777 18.6662V21.3126H70.713Z" fill="currentColor"/>
<path d="M75.125 18.6662C75.125 18.1369 74.8074 17.7488 74.3134 17.7488C73.8547 17.7488 73.5371 18.1369 73.5371 18.6662V21.7714H75.125V18.6662ZM74.6663 21.3126H73.9958V18.6662C73.9958 18.4192 74.137 18.2428 74.3134 18.2428C74.5251 18.2428 74.631 18.4192 74.631 18.6662V21.3126H74.6663Z" fill="currentColor"/>
<path d="M77.666 18.6662C77.666 18.1369 77.3484 17.7488 76.8897 17.7488C76.431 17.7488 76.1134 18.1369 76.0781 18.6662V21.7714H77.666V18.6662ZM77.2073 21.3126H76.5368V18.6662C76.5368 18.4192 76.678 18.2428 76.8544 18.2428C77.0308 18.2428 77.172 18.4192 77.172 18.6662V21.3126H77.2073Z" fill="currentColor"/>
<path d="M80.0996 18.6662C80.0996 18.1369 79.782 17.7488 79.3233 17.7488C78.8646 17.7488 78.5117 18.1369 78.5117 18.6662V21.7714H80.0996V18.6662ZM79.6409 21.3126H78.9704V18.6662C78.9704 18.4192 79.1116 18.2428 79.288 18.2428C79.4644 18.2428 79.6056 18.4192 79.6056 18.6662V21.3126H79.6409Z" fill="currentColor"/>
<path d="M84.0526 18.6662C84.0526 18.1369 83.735 17.7488 83.2763 17.7488C82.8176 17.7488 82.5 18.1369 82.5 18.6662V21.7714H84.0879V18.6662H84.0526ZM83.5939 21.3126H82.9234V18.6662C82.9234 18.4192 83.0646 18.2428 83.241 18.2428C83.4174 18.2428 83.5586 18.4192 83.5586 18.6662V21.3126H83.5939Z" fill="currentColor"/>
<path d="M86.5916 18.6662C86.5916 18.1369 86.2741 17.7488 85.8153 17.7488C85.3566 17.7488 85.0391 18.1369 85.0391 18.6662V21.7714H86.6269V18.6662H86.5916ZM86.1329 21.3126H85.4625V18.6662C85.4625 18.4192 85.6036 18.2428 85.7801 18.2428C85.9918 18.2428 86.0976 18.4192 86.0976 18.6662V21.3126H86.1329Z" fill="currentColor"/>
<path d="M89.0272 18.6662C89.0272 18.1369 88.7096 17.7488 88.2509 17.7488C87.7922 17.7488 87.4746 18.1369 87.4746 18.6662V21.7714H89.0625V18.6662H89.0272ZM88.5685 21.3126H87.898V18.6662C87.898 18.4192 88.0392 18.2428 88.2156 18.2428C88.392 18.2428 88.5332 18.4192 88.5332 18.6662V21.3126H88.5685Z" fill="currentColor"/>
<path d="M92.2021 17.7839C91.7433 17.7839 91.4258 18.1721 91.4258 18.7014V21.8065H93.0136V18.7014C93.0136 18.1721 92.6608 17.7839 92.2021 17.7839ZM92.5549 21.3125H91.8845V18.6661C91.8845 18.4191 92.0256 18.2427 92.2021 18.2427C92.4138 18.2427 92.5196 18.4191 92.5196 18.6661V21.3125H92.5549Z" fill="currentColor"/>
<path d="M94.7431 17.7839C94.2844 17.7839 93.9668 18.1721 93.9668 18.7014V21.8065H95.5547V18.7014C95.5547 18.1721 95.2018 17.7839 94.7431 17.7839ZM95.0959 21.3125H94.4255V18.6661C94.4255 18.4191 94.5667 18.2427 94.7431 18.2427C94.9548 18.2427 95.0607 18.4191 95.0607 18.6661V21.3125H95.0959Z" fill="currentColor"/>
<path d="M6.10531 18.6662C6.10531 18.1369 5.78774 17.7488 5.32902 17.7488C4.87031 17.7488 4.55273 18.1369 4.55273 18.6662V21.7714H6.1406V18.6662H6.10531ZM5.64659 21.3126H4.97616V18.6662C4.97616 18.4192 5.11731 18.2428 5.29374 18.2428C5.50545 18.2428 5.61131 18.4192 5.61131 18.6662V21.3126H5.64659Z" fill="currentColor"/>
<path d="M8.64646 18.6662C8.64646 18.1369 8.32888 17.7488 7.87017 17.7488C7.41145 17.7488 7.05859 18.1722 7.05859 18.6662V21.7714H8.64646V18.6662ZM8.18774 21.3126H7.51731V18.6662C7.51731 18.4192 7.65845 18.2428 7.83488 18.2428C8.01131 18.2428 8.15245 18.4192 8.15245 18.6662V21.3126H8.18774Z" fill="currentColor"/>
<path d="M91.5684 27.6289H95.1322V23.1829H91.5684V27.6289ZM92.0271 23.6416H93.1209H93.5797H94.6735V27.1349H92.0271V23.6416Z" fill="currentColor"/>
<path d="M91.5684 33.2393H95.1322V28.8286H91.5684V33.2393ZM92.0271 29.2873H94.6735V32.7806H92.0271V29.2873Z" fill="currentColor"/>
<path d="M4.80078 38.885H8.36465V34.439H4.80078V38.885ZM5.29478 34.8977H7.94122V38.391H5.29478V34.8977Z" fill="currentColor"/>
<path d="M4.80078 33.2393H8.36465V28.8286H4.80078V33.2393ZM5.29478 29.2873H7.94122V32.7806H5.29478V29.2873Z" fill="currentColor"/>
<path d="M4.80078 27.6289H8.36465V23.1829H4.80078V27.6289ZM5.29478 23.6416H7.94122V27.1349H5.29478V23.6416Z" fill="currentColor"/>
<path d="M28.8652 38.885H31.8645V34.439H28.8652V38.885ZM29.3239 34.8977H31.4058V38.391H29.3239V34.8977Z" fill="currentColor"/>
<path d="M32.4648 38.885H35.4641V34.439H32.4648V38.885ZM32.9236 34.8977H35.0054V38.391H32.9236V34.8977Z" fill="currentColor"/>
<path d="M37.793 38.885H40.7923V34.439H37.793V38.885ZM38.2517 34.8977H40.3335V38.391H38.2517V34.8977Z" fill="currentColor"/>
<path d="M44.3899 34.439H41.3906V38.885H44.3899V34.439ZM43.9312 38.4263H41.8493V34.933H43.9312V38.4263Z" fill="currentColor"/>
<path d="M37.793 33.2393H40.7923V28.8286H37.793V33.2393ZM38.2517 29.2873H40.3335V32.7806H38.2517V29.2873Z" fill="currentColor"/>
<path d="M44.3899 28.8286H41.3906V33.2746H44.3899V28.8286ZM43.9312 32.7806H41.8493V29.2873H43.9312V32.7806Z" fill="currentColor"/>
<path d="M55.6816 33.2393H58.6809V28.8286H55.6816V33.2393ZM56.1404 29.2873H58.2222V32.7806H56.1404V29.2873Z" fill="currentColor"/>
<path d="M59.2812 33.2393H62.2805V28.8286H59.2812V33.2393ZM59.74 29.2873H61.8218V32.7806H59.74V29.2873Z" fill="currentColor"/>
<path d="M55.6816 38.885H58.6809V34.439H55.6816V38.885ZM56.1404 34.8977H58.2222V38.391H56.1404V34.8977Z" fill="currentColor"/>
<path d="M59.2812 38.885H62.2805V34.439H59.2812V38.885ZM59.74 34.8977H61.8218V38.391H59.74V34.8977Z" fill="currentColor"/>
<path d="M64.5742 33.2393H67.5735V28.8286H64.5742V33.2393ZM65.0329 29.2873H67.1148V32.7806H65.0329V29.2873Z" fill="currentColor"/>
<path d="M68.1738 33.2393H71.1731V28.8286H68.1738V33.2393ZM68.6325 29.2873H70.7144V32.7806H68.6325V29.2873Z" fill="currentColor"/>
<path d="M64.5742 38.885H67.5735V34.439H64.5742V38.885ZM65.0329 34.8977H67.1148V38.391H65.0329V34.8977Z" fill="currentColor"/>
<path d="M68.1738 38.885H71.1731V34.439H68.1738V38.885ZM68.6325 34.8977H70.7144V38.391H68.6325V34.8977Z" fill="currentColor"/>
<path d="M73.502 33.2393H76.5012V28.8286H73.502V33.2393ZM73.996 29.2873H76.0778V32.7806H73.996V29.2873Z" fill="currentColor"/>
<path d="M77.1367 33.2393H80.136V28.8286H77.1367V33.2393ZM77.5954 29.2873H79.6773V32.7806H77.5954V29.2873Z" fill="currentColor"/>
<path d="M73.502 38.885H76.5012V34.439H73.502V38.885ZM73.996 34.8977H76.0778V38.391H73.996V34.8977Z" fill="currentColor"/>
<path d="M77.1367 38.885H80.136V34.439H77.1367V38.885ZM77.5954 34.8977H79.6773V38.391H77.5954V34.8977Z" fill="currentColor"/>
<path d="M82.4277 33.2393H85.427V28.8286H82.4277V33.2393ZM82.8864 29.2873H84.9683V32.7806H82.8864V29.2873Z" fill="currentColor"/>
<path d="M86.0273 33.2393H89.0266V28.8286H86.0273V33.2393ZM86.4861 29.2873H88.5679V32.7806H86.4861V29.2873Z" fill="currentColor"/>
<path d="M55.6816 27.6289H58.6809V23.1829H55.6816V27.6289ZM56.1404 23.6416H58.2222V27.1349H56.1404V23.6416Z" fill="currentColor"/>
<path d="M59.2812 27.6289H62.2805V23.1829H59.2812V27.6289ZM59.74 23.6416H61.8218V27.1349H59.74V23.6416Z" fill="currentColor"/>
<path d="M64.5742 27.6289H67.5735V23.1829H64.5742V27.6289ZM65.0329 23.6416H67.1148V27.1349H65.0329V23.6416Z" fill="currentColor"/>
<path d="M68.1738 27.6289H71.1731V23.1829H68.1738V27.6289ZM68.6325 23.6416H70.7144V27.1349H68.6325V23.6416Z" fill="currentColor"/>
<path d="M73.502 27.6289H76.5012V23.1829H73.502V27.6289ZM73.996 23.6416H76.0778V27.1349H73.996V23.6416Z" fill="currentColor"/>
<path d="M77.1367 27.6289H80.136V23.1829H77.1367V27.6289ZM77.5954 23.6416H79.6773V27.1349H77.5954V23.6416Z" fill="currentColor"/>
<path d="M82.4277 27.6289H85.427V23.1829H82.4277V27.6289ZM82.8864 23.6416H84.9683V27.1349H82.8864V23.6416Z" fill="currentColor"/>
<path d="M86.0273 27.6289H89.0266V23.1829H86.0273V27.6289ZM86.4861 23.6416H88.5679V27.1349H86.4861V23.6416Z" fill="currentColor"/>
<path d="M82.4277 38.885H85.427V34.439H82.4277V38.885ZM82.8864 34.8977H84.9683V38.391H82.8864V34.8977Z" fill="currentColor"/>
<path d="M86.0273 38.885H89.0266V34.439H86.0273V38.885ZM86.4861 34.8977H88.5679V38.391H86.4861V34.8977Z" fill="currentColor"/>
<path d="M46.7188 33.2393H49.718V28.8286H46.7188V33.2393ZM47.1775 29.2873H49.2593V32.7806H47.1775V29.2873Z" fill="currentColor"/>
<path d="M53.3177 28.8286H50.3184V33.2746H53.3177V28.8286ZM52.8589 32.7806H50.7771V29.2873H52.8589V32.7806Z" fill="currentColor"/>
<path d="M46.7188 27.6289H49.718V23.1829H46.7188V27.6289ZM47.1775 23.6416H49.2593V27.1349H47.1775V23.6416Z" fill="currentColor"/>
<path d="M53.3177 23.1829H50.3184V27.6289H53.3177V23.1829ZM52.8589 27.1702H50.7771V23.6769H52.8589V27.1702Z" fill="currentColor"/>
<path d="M19.9023 38.885H22.9016V34.439H19.9023V38.885ZM20.3611 34.8977H22.4429V38.391H20.3611V34.8977Z" fill="currentColor"/>
<path d="M23.502 38.885H26.5012V34.439H23.502V38.885ZM23.9607 34.8977H26.0425V38.391H23.9607V34.8977Z" fill="currentColor"/>
<path d="M19.9023 33.2393H22.9016V28.8286H19.9023V33.2393ZM20.3611 29.2873H22.4429V32.7806H20.3611V29.2873Z" fill="currentColor"/>
<path d="M23.502 33.2393H26.5012V28.8286H23.502V33.2393ZM23.9607 29.2873H26.0425V32.7806H23.9607V29.2873Z" fill="currentColor"/>
<path d="M11.0098 33.2393H14.0091V28.8286H11.0098V33.2393ZM11.4685 29.2873H13.5503V32.7806H11.4685V29.2873Z" fill="currentColor"/>
<path d="M14.6094 33.2393H17.644V28.8286H14.6447V33.2393H14.6094ZM15.1034 29.2873H17.1852V32.7806H15.1034V29.2873Z" fill="currentColor"/>
<path d="M11.0098 38.885H14.0091V34.439H11.0098V38.885ZM11.4685 34.8977H13.5503V38.391H11.4685V34.8977Z" fill="currentColor"/>
<path d="M14.6094 38.885H17.644V34.439H14.6447V38.885H14.6094ZM15.1034 34.8977H17.1852V38.391H15.1034V34.8977Z" fill="currentColor"/>
<path d="M28.8652 33.2393H31.8645V28.8286H28.8652V33.2393ZM29.3239 29.2873H31.4058V32.7806H29.3239V29.2873Z" fill="currentColor"/>
<path d="M32.4648 33.2393H35.4641V28.8286H32.4648V33.2393ZM32.9236 29.2873H35.0054V32.7806H32.9236V29.2873Z" fill="currentColor"/>
<path d="M37.793 27.6289H40.7923V23.1829H37.793V27.6289ZM38.2517 23.6416H40.3335V27.1349H38.2517V23.6416Z" fill="currentColor"/>
<path d="M44.3899 23.1829H41.3906V27.6289H44.3899V23.1829ZM43.9312 27.1702H41.8493V23.6769H43.9312V27.1702Z" fill="currentColor"/>
<path d="M19.9023 27.6289H22.9016V23.1829H19.9023V27.6289ZM20.3611 23.6416H22.4429V27.1349H20.3611V23.6416Z" fill="currentColor"/>
<path d="M23.502 27.6289H26.5012V23.1829H23.502V27.6289ZM23.9607 23.6416H26.0425V27.1349H23.9607V23.6416Z" fill="currentColor"/>
<path d="M11.0098 27.6289H14.0091V23.1829H11.0098V27.6289ZM11.4685 23.6416H13.5503V27.1349H11.4685V23.6416Z" fill="currentColor"/>
<path d="M14.6094 27.6289H17.644V23.1829H14.6447V27.6289H14.6094ZM15.1034 23.6416H17.1852V27.1349H15.1034V23.6416Z" fill="currentColor"/>
<path d="M28.8652 27.6289H31.8645V23.1829H28.8652V27.6289ZM29.3239 23.6416H31.4058V27.1349H29.3239V23.6416Z" fill="currentColor"/>
<path d="M32.4648 27.6289H35.4641V23.1829H32.4648V27.6289ZM32.9236 23.6416H35.0054V27.1349H32.9236V23.6416Z" fill="currentColor"/>
<path d="M91.5684 38.885H95.1322V34.439H91.5684V38.885ZM92.0271 34.933H94.6735V38.4263H92.0271V34.933Z" fill="currentColor"/>
<path d="M48.3066 13.4438H46.7188V15.9139H48.3066V13.4438ZM47.8479 15.4551H47.1775V13.9026H47.8479V15.4551Z" fill="currentColor"/>
<path d="M50.8476 13.4438H49.2598V15.9139H50.8476V13.4438ZM50.3889 15.4551H49.7538V13.9026H50.4242V15.4551H50.3889Z" fill="currentColor"/>
<path d="M53.2832 13.4438H51.6953V15.9139H53.2832V13.4438ZM52.8245 15.4551H52.154V13.9026H52.8245V15.4551Z" fill="currentColor"/>
<path d="M82.9579 62.7735C82.9579 63.3028 82.7815 63.4792 82.2875 63.4439C81.1936 63.4086 80.0645 63.4086 78.9706 63.4439C78.4766 63.4439 78.2649 63.3028 78.3002 62.7735C78.653 62.7382 79.0412 62.7382 79.4293 62.6323C79.5705 62.597 79.8175 62.3853 79.8175 62.2442C79.8528 59.5625 79.8175 56.916 79.8175 54.2343C79.8175 54.199 79.7822 54.1637 79.7469 54.0579C79.6058 54.199 79.4646 54.3402 79.3588 54.4813C77.5239 56.669 75.689 58.8567 73.8895 61.0445C73.7483 61.1856 73.6072 61.362 73.5366 61.5385C73.3249 62.103 73.5366 62.4912 74.1365 62.597C74.4187 62.6676 74.701 62.7029 75.0186 62.7382C75.0539 63.2322 74.9127 63.4439 74.3835 63.4439C73.2543 63.4086 72.1252 63.4086 70.996 63.4439C70.5373 63.4439 70.2903 63.3028 70.3256 62.7735C70.6784 62.7382 71.0313 62.7029 71.4194 62.6323C71.7017 62.597 71.8429 62.4912 71.8429 62.1383C71.8429 58.892 71.8429 55.681 71.8429 52.4347C71.8429 52.1172 71.737 51.976 71.4194 51.9407C71.1019 51.9054 70.8196 51.8702 70.502 51.8349C70.4667 51.3409 70.6432 51.1644 71.1372 51.1644C72.1605 51.1997 73.219 51.1644 74.2423 51.1644C74.8069 51.1644 74.8069 51.1644 74.9127 51.8349C74.5599 51.8702 74.2423 51.8702 73.9247 51.976C73.7836 52.0113 73.5366 52.223 73.5366 52.3642C73.5013 54.9047 73.5366 57.41 73.5366 59.9153C73.5366 59.9506 73.5719 59.9859 73.6072 60.0917C73.7483 59.9506 73.8895 59.8095 73.9953 59.6683C75.8302 57.4806 77.7003 55.2929 79.5352 53.0699C79.7116 52.8582 79.8175 52.5053 79.8175 52.1877C79.8175 52.0819 79.3588 51.976 79.1118 51.9054C78.9353 51.8349 78.7236 51.8349 78.5119 51.7996C78.5119 51.3761 78.6178 51.1292 79.1118 51.1292C80.135 51.1644 81.1936 51.1644 82.2169 51.1292C82.7109 51.1292 82.9579 51.2703 82.9226 51.7996C82.6051 51.8349 82.2522 51.8349 81.9346 51.9407C81.7935 51.976 81.5818 52.1877 81.5818 52.3289C81.5465 55.5752 81.5818 58.7862 81.5465 62.0325C81.5465 62.35 81.6876 62.4559 81.9346 62.4912C82.2522 62.6323 82.6051 62.7029 82.9579 62.7735Z" fill="currentColor"/>
<path d="M99.1877 62.6324C98.6584 62.5971 98.482 62.3501 98.482 61.8208C98.5173 58.8215 98.482 55.8222 98.482 52.8229C98.482 52.0466 98.482 52.0466 99.223 51.976C99.4347 51.9408 99.6464 51.9408 99.8934 51.9055C99.8229 51.6585 99.7523 51.482 99.6817 51.2703C98.9407 51.2703 98.1997 51.235 97.494 51.2703C96.012 51.3409 94.53 51.3409 93.0833 51.482C91.566 51.6585 90.4368 52.9288 90.3663 54.2696C90.331 55.7163 91.2131 56.7396 92.8363 57.1278C93.295 57.2336 93.789 57.3042 94.3888 57.3748C93.295 57.7982 92.6598 58.5745 92.1658 59.4213C91.8835 59.8801 91.6012 60.3741 91.319 60.7975C90.7191 61.6796 90.331 62.7382 89.0254 62.7735C89.0607 63.3028 89.2724 63.4792 89.7311 63.4439C90.0134 63.4086 90.2957 63.4086 90.5427 63.4439C91.2131 63.5498 91.7071 63.2322 92.06 62.7382C92.4834 62.1384 92.8715 61.5032 93.2597 60.8681C93.8243 59.9506 94.3888 59.0332 94.9887 58.1863C95.3768 57.6218 95.9767 57.3042 96.7177 57.4101V62.5971C96.2237 62.6676 95.7297 62.7382 95.271 62.7735C95.271 63.3381 95.518 63.4439 96.012 63.4439C97.1058 63.4086 98.1997 63.4086 99.2936 63.4439C99.8228 63.4792 99.9993 63.2675 99.9993 62.7382C99.7523 62.7382 99.47 62.6676 99.1877 62.6324ZM96.7883 56.5632C95.765 56.7396 94.8123 56.7396 93.8948 56.4573C92.8363 56.1045 92.2364 55.187 92.3423 54.1285C92.4481 53.1052 93.295 52.1525 94.3183 52.0466C95.024 51.976 95.7297 52.0113 96.4354 52.0466C96.5765 52.0466 96.7883 52.2583 96.7883 52.3995C96.8236 53.7756 96.7883 55.1518 96.7883 56.5632Z" fill="currentColor"/>
<path d="M22.4419 50.9175C18.6311 50.9175 15.9141 53.5992 15.9141 57.3748C15.9141 61.1151 18.6311 63.7968 22.4067 63.7968C26.7468 63.8321 28.8992 60.6564 28.9345 57.3395C29.0051 53.5992 26.2175 50.9175 22.4419 50.9175ZM26.4645 60.2682C25.8647 62.1384 24.2768 63.1264 22.3361 63.0911C20.0072 63.0558 18.7722 61.5738 18.3135 59.9507C17.8195 58.2216 17.8195 56.4574 18.3135 54.7283C18.8428 52.9288 20.2189 51.4821 22.6537 51.5526C24.6297 51.6232 26.1822 52.8935 26.641 54.9401C26.8174 55.7164 26.8527 56.5632 26.9938 57.5159C26.8527 58.3628 26.7468 59.3508 26.4645 60.2682Z" fill="currentColor"/>
<path d="M9.31546 52.9288C8.57445 51.7644 7.37474 51.3057 6.10445 51.2704C4.19901 51.1998 2.25829 51.2704 0.317572 51.2704C0.247001 51.5174 0.211715 51.6938 0.141143 51.9408C0.42343 51.9761 0.67043 52.0467 0.917431 52.0467C1.482 52.0467 1.58786 52.2937 1.58786 52.823C1.55258 55.8928 1.58786 58.9627 1.58786 62.0326V62.6324C1.02329 62.703 0.529287 62.7736 0 62.8794C0.0705716 63.1264 0.141143 63.3028 0.211715 63.5146C1.79958 63.5146 3.35215 63.4793 4.94001 63.5146C5.43402 63.5146 5.64573 63.3734 5.64573 62.8794C4.94001 62.8088 4.26958 62.7383 3.59915 62.6324C3.45801 62.5971 3.28158 62.4207 3.24629 62.3148C3.21101 61.0093 3.24629 59.7037 3.24629 58.3628C3.56387 58.3981 3.84615 58.4687 4.12844 58.4334C5.18701 58.3628 6.24559 58.3981 7.26888 58.1511C9.52717 57.516 10.5505 54.8695 9.31546 52.9288ZM7.76288 55.7517C7.51588 56.9161 6.70431 57.4807 5.57516 57.6571C4.9753 57.763 4.34016 57.6924 3.7403 57.6924C3.42272 57.6924 3.24629 57.516 3.24629 57.1278C3.28158 56.3515 3.24629 55.5752 3.24629 54.799C3.24629 54.0227 3.24629 53.2464 3.24629 52.4701C3.24629 52.329 3.42272 52.082 3.56387 52.0467C4.44601 51.7997 5.32816 51.7997 6.17502 52.082C7.09245 52.3995 7.72759 53.0347 7.79817 54.058C7.86874 54.5872 7.86874 55.1871 7.76288 55.7517Z" fill="currentColor"/>
<path d="M64.1495 62.0678C63.6908 62.4206 63.338 62.7735 62.8792 63.0205C59.9152 64.6436 55.0458 63.8321 53.2109 60.0565C52.0818 57.657 52.5052 55.0106 54.3754 52.9993C56.2455 50.988 58.5391 50.494 61.0797 51.3056C61.7854 51.5173 62.4558 52.0466 63.0204 52.5406C63.6555 53.1052 63.6908 53.7403 63.3732 54.2343C62.9851 54.7636 62.1735 54.9753 61.4325 54.6577C61.3267 54.6225 61.2561 54.5519 61.1502 54.5166C61.8912 53.1757 61.2561 51.976 59.7741 51.729C58.1862 51.4467 56.9512 52.0466 55.9279 53.2463C54.2342 55.2576 54.4459 59.139 55.4339 60.7975C56.9159 63.3028 60.374 63.8673 62.4911 61.8913C62.9498 61.4679 63.2674 61.3973 63.6908 61.7855C63.7967 61.8208 63.9378 61.8913 64.1495 62.0678Z" fill="currentColor"/>
<path d="M46.5429 61.9972C45.7666 62.9147 44.8139 63.3734 43.72 63.5851C41.2853 64.0791 39.027 63.6204 37.1568 61.9619C34.581 59.6684 34.3693 55.8575 36.6628 53.1405C38.4624 51.0233 41.3206 50.2471 43.8611 51.3409C44.461 51.5879 45.0609 52.0466 45.5549 52.5053C46.1547 53.0699 46.2253 53.6698 45.8724 54.1638C45.5549 54.6578 44.8139 54.8695 44.1081 54.6578C43.967 54.6225 43.8259 54.5166 43.6141 54.4461C44.0729 53.8815 44.1434 53.3169 43.8259 52.6818C43.473 52.0113 42.8379 51.7643 42.1321 51.6232C40.6501 51.3762 39.4504 51.9408 38.4977 53.0346C36.9098 54.9048 36.6981 58.5745 37.9331 60.7269C39.1681 62.8088 42.6261 64.0438 44.9903 61.7502C45.449 61.3268 45.7313 61.3268 46.1547 61.6797C46.2253 61.8208 46.3312 61.8914 46.5429 61.9972Z" fill="currentColor"/>
</svg>
